ISO-10303-21;
HEADER;
/* Generated by software containing ST-Developer
 * from STEP Tools, Inc. (www.steptools.com) 
 */

FILE_DESCRIPTION(
/* description */ (''),
/* implementation_level */ '2;1');

FILE_NAME(
/* name */ '',
/* time_stamp */ '2026-09-27T14:22:58-07:00',
/* author */ (''),
/* organization */ (''),
/* preprocessor_version */ 'ST-DEVELOPER v20.2',
/* originating_system */ 'Autodesk Translation Framework v15.15.0.0',
/* authorisation */ '');

FILE_SCHEMA (('AUTOMOTIVE_DESIGN { 1 0 10303 214 3 1 1 }'));
ENDSEC;

DATA;
#10=MECHANICAL_DESIGN_GEOMETRIC_PRESENTATION_REPRESENTATION('',(#13),#1865);
#11=SHAPE_REPRESENTATION_RELATIONSHIP('SRR','None',#1872,#12);
#12=ADVANCED_BREP_SHAPE_REPRESENTATION('',(#14),#1864);
#13=STYLED_ITEM('',(#1881),#14);
#14=MANIFOLD_SOLID_BREP('\X2\987690E8\X0\',#1081);
#15=FACE_BOUND('',#137,.T.);
#16=FACE_BOUND('',#170,.T.);
#17=FACE_BOUND('',#172,.T.);
#18=FACE_BOUND('',#173,.T.);
#19=FACE_BOUND('',#178,.T.);
#20=FACE_BOUND('',#179,.T.);
#21=FACE_BOUND('',#193,.T.);
#22=PLANE('',#1121);
#23=PLANE('',#1124);
#24=PLANE('',#1125);
#25=PLANE('',#1130);
#26=PLANE('',#1132);
#27=PLANE('',#1135);
#28=PLANE('',#1136);
#29=PLANE('',#1137);
#30=PLANE('',#1139);
#31=PLANE('',#1142);
#32=PLANE('',#1143);
#33=PLANE('',#1144);
#34=PLANE('',#1146);
#35=PLANE('',#1149);
#36=PLANE('',#1150);
#37=PLANE('',#1151);
#38=PLANE('',#1153);
#39=PLANE('',#1156);
#40=PLANE('',#1157);
#41=PLANE('',#1181);
#42=PLANE('',#1183);
#43=PLANE('',#1188);
#44=PLANE('',#1191);
#45=PLANE('',#1194);
#46=PLANE('',#1197);
#47=PLANE('',#1200);
#48=PLANE('',#1203);
#49=PLANE('',#1206);
#50=PLANE('',#1209);
#51=PLANE('',#1212);
#52=PLANE('',#1213);
#53=TOROIDAL_SURFACE('',#1098,5.29999999999999,1.);
#54=TOROIDAL_SURFACE('',#1104,5.3,1.);
#55=TOROIDAL_SURFACE('',#1110,5.30000000000002,1.);
#56=TOROIDAL_SURFACE('',#1116,5.30000000000001,1.);
#57=TOROIDAL_SURFACE('',#1161,4.80000000000001,1.5);
#58=TOROIDAL_SURFACE('',#1167,4.80000000000002,1.5);
#59=TOROIDAL_SURFACE('',#1173,4.8,1.5);
#60=TOROIDAL_SURFACE('',#1178,4.79999999999999,1.5);
#61=FACE_OUTER_BOUND('',#124,.T.);
#62=FACE_OUTER_BOUND('',#125,.T.);
#63=FACE_OUTER_BOUND('',#126,.T.);
#64=FACE_OUTER_BOUND('',#127,.T.);
#65=FACE_OUTER_BOUND('',#128,.T.);
#66=FACE_OUTER_BOUND('',#129,.T.);
#67=FACE_OUTER_BOUND('',#130,.T.);
#68=FACE_OUTER_BOUND('',#131,.T.);
#69=FACE_OUTER_BOUND('',#132,.T.);
#70=FACE_OUTER_BOUND('',#133,.T.);
#71=FACE_OUTER_BOUND('',#134,.T.);
#72=FACE_OUTER_BOUND('',#135,.T.);
#73=FACE_OUTER_BOUND('',#136,.T.);
#74=FACE_OUTER_BOUND('',#138,.T.);
#75=FACE_OUTER_BOUND('',#139,.T.);
#76=FACE_OUTER_BOUND('',#140,.T.);
#77=FACE_OUTER_BOUND('',#141,.T.);
#78=FACE_OUTER_BOUND('',#142,.T.);
#79=FACE_OUTER_BOUND('',#143,.T.);
#80=FACE_OUTER_BOUND('',#144,.T.);
#81=FACE_OUTER_BOUND('',#145,.T.);
#82=FACE_OUTER_BOUND('',#146,.T.);
#83=FACE_OUTER_BOUND('',#147,.T.);
#84=FACE_OUTER_BOUND('',#148,.T.);
#85=FACE_OUTER_BOUND('',#149,.T.);
#86=FACE_OUTER_BOUND('',#150,.T.);
#87=FACE_OUTER_BOUND('',#151,.T.);
#88=FACE_OUTER_BOUND('',#152,.T.);
#89=FACE_OUTER_BOUND('',#153,.T.);
#90=FACE_OUTER_BOUND('',#154,.T.);
#91=FACE_OUTER_BOUND('',#155,.T.);
#92=FACE_OUTER_BOUND('',#156,.T.);
#93=FACE_OUTER_BOUND('',#157,.T.);
#94=FACE_OUTER_BOUND('',#158,.T.);
#95=FACE_OUTER_BOUND('',#159,.T.);
#96=FACE_OUTER_BOUND('',#160,.T.);
#97=FACE_OUTER_BOUND('',#161,.T.);
#98=FACE_OUTER_BOUND('',#162,.T.);
#99=FACE_OUTER_BOUND('',#163,.T.);
#100=FACE_OUTER_BOUND('',#164,.T.);
#101=FACE_OUTER_BOUND('',#165,.T.);
#102=FACE_OUTER_BOUND('',#166,.T.);
#103=FACE_OUTER_BOUND('',#167,.T.);
#104=FACE_OUTER_BOUND('',#168,.T.);
#105=FACE_OUTER_BOUND('',#169,.T.);
#106=FACE_OUTER_BOUND('',#171,.T.);
#107=FACE_OUTER_BOUND('',#174,.T.);
#108=FACE_OUTER_BOUND('',#175,.T.);
#109=FACE_OUTER_BOUND('',#176,.T.);
#110=FACE_OUTER_BOUND('',#177,.T.);
#111=FACE_OUTER_BOUND('',#180,.T.);
#112=FACE_OUTER_BOUND('',#181,.T.);
#113=FACE_OUTER_BOUND('',#182,.T.);
#114=FACE_OUTER_BOUND('',#183,.T.);
#115=FACE_OUTER_BOUND('',#184,.T.);
#116=FACE_OUTER_BOUND('',#185,.T.);
#117=FACE_OUTER_BOUND('',#186,.T.);
#118=FACE_OUTER_BOUND('',#187,.T.);
#119=FACE_OUTER_BOUND('',#188,.T.);
#120=FACE_OUTER_BOUND('',#189,.T.);
#121=FACE_OUTER_BOUND('',#190,.T.);
#122=FACE_OUTER_BOUND('',#191,.T.);
#123=FACE_OUTER_BOUND('',#192,.T.);
#124=EDGE_LOOP('',(#690,#691,#692,#693));
#125=EDGE_LOOP('',(#694,#695,#696,#697));
#126=EDGE_LOOP('',(#698,#699,#700,#701));
#127=EDGE_LOOP('',(#702,#703,#704,#705));
#128=EDGE_LOOP('',(#706,#707,#708,#709));
#129=EDGE_LOOP('',(#710,#711,#712,#713));
#130=EDGE_LOOP('',(#714,#715,#716,#717));
#131=EDGE_LOOP('',(#718,#719,#720,#721));
#132=EDGE_LOOP('',(#722,#723,#724,#725));
#133=EDGE_LOOP('',(#726,#727,#728,#729));
#134=EDGE_LOOP('',(#730,#731,#732,#733));
#135=EDGE_LOOP('',(#734,#735,#736,#737));
#136=EDGE_LOOP('',(#738,#739,#740,#741,#742,#743,#744,#745));
#137=EDGE_LOOP('',(#746,#747,#748,#749,#750,#751,#752,#753));
#138=EDGE_LOOP('',(#754,#755,#756,#757));
#139=EDGE_LOOP('',(#758,#759,#760,#761));
#140=EDGE_LOOP('',(#762,#763,#764,#765));
#141=EDGE_LOOP('',(#766,#767,#768,#769));
#142=EDGE_LOOP('',(#770,#771,#772,#773));
#143=EDGE_LOOP('',(#774,#775,#776,#777));
#144=EDGE_LOOP('',(#778,#779,#780,#781));
#145=EDGE_LOOP('',(#782,#783,#784,#785));
#146=EDGE_LOOP('',(#786,#787,#788,#789));
#147=EDGE_LOOP('',(#790,#791,#792,#793));
#148=EDGE_LOOP('',(#794,#795,#796,#797));
#149=EDGE_LOOP('',(#798,#799,#800,#801));
#150=EDGE_LOOP('',(#802,#803,#804,#805));
#151=EDGE_LOOP('',(#806,#807,#808,#809));
#152=EDGE_LOOP('',(#810,#811,#812,#813));
#153=EDGE_LOOP('',(#814,#815,#816,#817));
#154=EDGE_LOOP('',(#818,#819,#820,#821));
#155=EDGE_LOOP('',(#822,#823,#824,#825));
#156=EDGE_LOOP('',(#826,#827,#828,#829));
#157=EDGE_LOOP('',(#830,#831,#832,#833));
#158=EDGE_LOOP('',(#834,#835,#836,#837));
#159=EDGE_LOOP('',(#838,#839,#840,#841));
#160=EDGE_LOOP('',(#842,#843,#844,#845));
#161=EDGE_LOOP('',(#846,#847,#848,#849));
#162=EDGE_LOOP('',(#850,#851,#852,#853));
#163=EDGE_LOOP('',(#854,#855,#856,#857));
#164=EDGE_LOOP('',(#858,#859,#860,#861));
#165=EDGE_LOOP('',(#862,#863,#864,#865));
#166=EDGE_LOOP('',(#866,#867,#868,#869));
#167=EDGE_LOOP('',(#870,#871,#872,#873));
#168=EDGE_LOOP('',(#874,#875,#876,#877));
#169=EDGE_LOOP('',(#878,#879,#880,#881,#882,#883,#884,#885));
#170=EDGE_LOOP('',(#886,#887,#888,#889,#890,#891,#892,#893));
#171=EDGE_LOOP('',(#894,#895,#896,#897));
#172=EDGE_LOOP('',(#898,#899,#900,#901));
#173=EDGE_LOOP('',(#902,#903,#904,#905));
#174=EDGE_LOOP('',(#906,#907,#908,#909));
#175=EDGE_LOOP('',(#910,#911,#912,#913));
#176=EDGE_LOOP('',(#914,#915,#916,#917));
#177=EDGE_LOOP('',(#918,#919,#920,#921));
#178=EDGE_LOOP('',(#922,#923,#924,#925));
#179=EDGE_LOOP('',(#926,#927,#928,#929));
#180=EDGE_LOOP('',(#930,#931,#932,#933));
#181=EDGE_LOOP('',(#934,#935,#936,#937));
#182=EDGE_LOOP('',(#938,#939,#940,#941));
#183=EDGE_LOOP('',(#942,#943,#944,#945));
#184=EDGE_LOOP('',(#946,#947,#948,#949));
#185=EDGE_LOOP('',(#950,#951,#952,#953));
#186=EDGE_LOOP('',(#954,#955,#956,#957));
#187=EDGE_LOOP('',(#958,#959,#960,#961));
#188=EDGE_LOOP('',(#962,#963,#964,#965));
#189=EDGE_LOOP('',(#966,#967,#968,#969));
#190=EDGE_LOOP('',(#970,#971,#972,#973));
#191=EDGE_LOOP('',(#974,#975,#976,#977));
#192=EDGE_LOOP('',(#978,#979,#980,#981,#982,#983,#984,#985));
#193=EDGE_LOOP('',(#986,#987,#988,#989,#990,#991,#992,#993));
#194=LINE('',#1556,#290);
#195=LINE('',#1559,#291);
#196=LINE('',#1570,#292);
#197=LINE('',#1571,#293);
#198=LINE('',#1582,#294);
#199=LINE('',#1583,#295);
#200=LINE('',#1594,#296);
#201=LINE('',#1595,#297);
#202=LINE('',#1601,#298);
#203=LINE('',#1604,#299);
#204=LINE('',#1607,#300);
#205=LINE('',#1608,#301);
#206=LINE('',#1611,#302);
#207=LINE('',#1615,#303);
#208=LINE('',#1616,#304);
#209=LINE('',#1622,#305);
#210=LINE('',#1626,#306);
#211=LINE('',#1630,#307);
#212=LINE('',#1633,#308);
#213=LINE('',#1637,#309);
#214=LINE('',#1639,#310);
#215=LINE('',#1642,#311);
#216=LINE('',#1645,#312);
#217=LINE('',#1647,#313);
#218=LINE('',#1648,#314);
#219=LINE('',#1652,#315);
#220=LINE('',#1655,#316);
#221=LINE('',#1656,#317);
#222=LINE('',#1658,#318);
#223=LINE('',#1662,#319);
#224=LINE('',#1664,#320);
#225=LINE('',#1667,#321);
#226=LINE('',#1670,#322);
#227=LINE('',#1672,#323);
#228=LINE('',#1673,#324);
#229=LINE('',#1677,#325);
#230=LINE('',#1680,#326);
#231=LINE('',#1681,#327);
#232=LINE('',#1683,#328);
#233=LINE('',#1687,#329);
#234=LINE('',#1689,#330);
#235=LINE('',#1692,#331);
#236=LINE('',#1695,#332);
#237=LINE('',#1697,#333);
#238=LINE('',#1698,#334);
#239=LINE('',#1702,#335);
#240=LINE('',#1705,#336);
#241=LINE('',#1706,#337);
#242=LINE('',#1708,#338);
#243=LINE('',#1712,#339);
#244=LINE('',#1714,#340);
#245=LINE('',#1717,#341);
#246=LINE('',#1720,#342);
#247=LINE('',#1722,#343);
#248=LINE('',#1723,#344);
#249=LINE('',#1727,#345);
#250=LINE('',#1730,#346);
#251=LINE('',#1731,#347);
#252=LINE('',#1733,#348);
#253=LINE('',#1739,#349);
#254=LINE('',#1750,#350);
#255=LINE('',#1751,#351);
#256=LINE('',#1761,#352);
#257=LINE('',#1762,#353);
#258=LINE('',#1770,#354);
#259=LINE('',#1774,#355);
#260=LINE('',#1775,#356);
#261=LINE('',#1777,#357);
#262=LINE('',#1784,#358);
#263=LINE('',#1788,#359);
#264=LINE('',#1792,#360);
#265=LINE('',#1795,#361);
#266=LINE('',#1799,#362);
#267=LINE('',#1800,#363);
#268=LINE('',#1801,#364);
#269=LINE('',#1805,#365);
#270=LINE('',#1808,#366);
#271=LINE('',#1809,#367);
#272=LINE('',#1813,#368);
#273=LINE('',#1816,#369);
#274=LINE('',#1817,#370);
#275=LINE('',#1821,#371);
#276=LINE('',#1824,#372);
#277=LINE('',#1825,#373);
#278=LINE('',#1831,#374);
#279=LINE('',#1832,#375);
#280=LINE('',#1833,#376);
#281=LINE('',#1837,#377);
#282=LINE('',#1840,#378);
#283=LINE('',#1841,#379);
#284=LINE('',#1845,#380);
#285=LINE('',#1848,#381);
#286=LINE('',#1849,#382);
#287=LINE('',#1853,#383);
#288=LINE('',#1856,#384);
#289=LINE('',#1857,#385);
#290=VECTOR('',#1220,10.);
#291=VECTOR('',#1223,10.);
#292=VECTOR('',#1236,10.);
#293=VECTOR('',#1237,10.);
#294=VECTOR('',#1250,10.);
#295=VECTOR('',#1251,10.);
#296=VECTOR('',#1264,10.);
#297=VECTOR('',#1265,10.);
#298=VECTOR('',#1274,10.);
#299=VECTOR('',#1277,10.);
#300=VECTOR('',#1280,10.);
#301=VECTOR('',#1281,10.);
#302=VECTOR('',#1284,10.);
#303=VECTOR('',#1289,10.);
#304=VECTOR('',#1290,10.);
#305=VECTOR('',#1295,10.);
#306=VECTOR('',#1298,10.);
#307=VECTOR('',#1301,10.);
#308=VECTOR('',#1304,10.);
#309=VECTOR('',#1307,10.);
#310=VECTOR('',#1308,10.);
#311=VECTOR('',#1311,10.);
#312=VECTOR('',#1314,10.);
#313=VECTOR('',#1315,10.);
#314=VECTOR('',#1316,10.);
#315=VECTOR('',#1321,10.);
#316=VECTOR('',#1324,10.);
#317=VECTOR('',#1325,10.);
#318=VECTOR('',#1328,10.);
#319=VECTOR('',#1331,10.);
#320=VECTOR('',#1332,10.);
#321=VECTOR('',#1335,10.);
#322=VECTOR('',#1338,10.);
#323=VECTOR('',#1339,10.);
#324=VECTOR('',#1340,10.);
#325=VECTOR('',#1345,10.);
#326=VECTOR('',#1348,10.);
#327=VECTOR('',#1349,10.);
#328=VECTOR('',#1352,10.);
#329=VECTOR('',#1355,10.);
#330=VECTOR('',#1356,10.);
#331=VECTOR('',#1359,10.);
#332=VECTOR('',#1362,10.);
#333=VECTOR('',#1363,10.);
#334=VECTOR('',#1364,10.);
#335=VECTOR('',#1369,10.);
#336=VECTOR('',#1372,10.);
#337=VECTOR('',#1373,10.);
#338=VECTOR('',#1376,10.);
#339=VECTOR('',#1379,10.);
#340=VECTOR('',#1380,10.);
#341=VECTOR('',#1383,10.);
#342=VECTOR('',#1386,10.);
#343=VECTOR('',#1387,10.);
#344=VECTOR('',#1388,10.);
#345=VECTOR('',#1393,10.);
#346=VECTOR('',#1396,10.);
#347=VECTOR('',#1397,10.);
#348=VECTOR('',#1400,10.);
#349=VECTOR('',#1407,10.);
#350=VECTOR('',#1420,10.);
#351=VECTOR('',#1421,10.);
#352=VECTOR('',#1434,10.);
#353=VECTOR('',#1435,10.);
#354=VECTOR('',#1446,10.);
#355=VECTOR('',#1453,10.);
#356=VECTOR('',#1454,10.);
#357=VECTOR('',#1457,10.);
#358=VECTOR('',#1464,10.);
#359=VECTOR('',#1467,10.);
#360=VECTOR('',#1470,10.);
#361=VECTOR('',#1473,10.);
#362=VECTOR('',#1476,10.);
#363=VECTOR('',#1477,10.);
#364=VECTOR('',#1478,10.);
#365=VECTOR('',#1483,10.);
#366=VECTOR('',#1486,10.);
#367=VECTOR('',#1487,10.);
#368=VECTOR('',#1492,10.);
#369=VECTOR('',#1495,10.);
#370=VECTOR('',#1496,10.);
#371=VECTOR('',#1501,10.);
#372=VECTOR('',#1504,10.);
#373=VECTOR('',#1505,10.);
#374=VECTOR('',#1512,10.);
#375=VECTOR('',#1513,10.);
#376=VECTOR('',#1514,10.);
#377=VECTOR('',#1519,10.);
#378=VECTOR('',#1522,10.);
#379=VECTOR('',#1523,10.);
#380=VECTOR('',#1528,10.);
#381=VECTOR('',#1531,10.);
#382=VECTOR('',#1532,10.);
#383=VECTOR('',#1537,10.);
#384=VECTOR('',#1540,10.);
#385=VECTOR('',#1541,10.);
#386=CIRCLE('',#1096,1.);
#387=CIRCLE('',#1097,0.999999999999988);
#388=CIRCLE('',#1099,1.);
#389=CIRCLE('',#1100,5.29999999999999);
#390=CIRCLE('',#1101,6.29999999999999);
#391=CIRCLE('',#1103,1.);
#392=CIRCLE('',#1105,0.999999999999996);
#393=CIRCLE('',#1106,5.3);
#394=CIRCLE('',#1107,6.3);
#395=CIRCLE('',#1109,0.999999999999996);
#396=CIRCLE('',#1111,0.999999999999996);
#397=CIRCLE('',#1112,5.30000000000002);
#398=CIRCLE('',#1113,6.30000000000002);
#399=CIRCLE('',#1115,1.);
#400=CIRCLE('',#1117,5.30000000000001);
#401=CIRCLE('',#1118,6.30000000000001);
#402=CIRCLE('',#1120,6.3);
#403=CIRCLE('',#1123,6.29999999999999);
#404=CIRCLE('',#1126,4.99999999999999);
#405=CIRCLE('',#1127,5.);
#406=CIRCLE('',#1128,5.00000000000002);
#407=CIRCLE('',#1129,4.99999999999999);
#408=CIRCLE('',#1131,0.699999999999994);
#409=CIRCLE('',#1134,0.699999999999994);
#410=CIRCLE('',#1138,0.699999999999994);
#411=CIRCLE('',#1141,0.699999999999994);
#412=CIRCLE('',#1145,0.699999999999994);
#413=CIRCLE('',#1148,0.699999999999994);
#414=CIRCLE('',#1152,0.699999999999994);
#415=CIRCLE('',#1155,0.699999999999994);
#416=CIRCLE('',#1159,1.5);
#417=CIRCLE('',#1160,1.49999999999999);
#418=CIRCLE('',#1162,1.49999999999999);
#419=CIRCLE('',#1163,4.80000000000001);
#420=CIRCLE('',#1164,6.30000000000001);
#421=CIRCLE('',#1166,1.5);
#422=CIRCLE('',#1168,1.5);
#423=CIRCLE('',#1169,4.80000000000002);
#424=CIRCLE('',#1170,6.30000000000002);
#425=CIRCLE('',#1172,1.5);
#426=CIRCLE('',#1174,1.49999999999999);
#427=CIRCLE('',#1175,4.8);
#428=CIRCLE('',#1177,1.5);
#429=CIRCLE('',#1179,4.79999999999999);
#430=CIRCLE('',#1184,2.00000000000002);
#431=CIRCLE('',#1185,2.00000000000002);
#432=CIRCLE('',#1186,2.00000000000001);
#433=CIRCLE('',#1187,1.99999999999999);
#434=CIRCLE('',#1190,4.99999999999999);
#435=CIRCLE('',#1193,5.00000000000002);
#436=CIRCLE('',#1196,5.);
#437=CIRCLE('',#1199,4.99999999999999);
#438=CIRCLE('',#1202,1.99999999999999);
#439=CIRCLE('',#1205,2.00000000000001);
#440=CIRCLE('',#1208,2.00000000000002);
#441=CIRCLE('',#1211,2.00000000000002);
#442=VERTEX_POINT('',#1552);
#443=VERTEX_POINT('',#1553);
#444=VERTEX_POINT('',#1555);
#445=VERTEX_POINT('',#1557);
#446=VERTEX_POINT('',#1561);
#447=VERTEX_POINT('',#1562);
#448=VERTEX_POINT('',#1567);
#449=VERTEX_POINT('',#1568);
#450=VERTEX_POINT('',#1573);
#451=VERTEX_POINT('',#1574);
#452=VERTEX_POINT('',#1579);
#453=VERTEX_POINT('',#1580);
#454=VERTEX_POINT('',#1585);
#455=VERTEX_POINT('',#1586);
#456=VERTEX_POINT('',#1591);
#457=VERTEX_POINT('',#1592);
#458=VERTEX_POINT('',#1600);
#459=VERTEX_POINT('',#1602);
#460=VERTEX_POINT('',#1606);
#461=VERTEX_POINT('',#1610);
#462=VERTEX_POINT('',#1614);
#463=VERTEX_POINT('',#1618);
#464=VERTEX_POINT('',#1619);
#465=VERTEX_POINT('',#1621);
#466=VERTEX_POINT('',#1623);
#467=VERTEX_POINT('',#1625);
#468=VERTEX_POINT('',#1627);
#469=VERTEX_POINT('',#1629);
#470=VERTEX_POINT('',#1631);
#471=VERTEX_POINT('',#1635);
#472=VERTEX_POINT('',#1636);
#473=VERTEX_POINT('',#1638);
#474=VERTEX_POINT('',#1640);
#475=VERTEX_POINT('',#1644);
#476=VERTEX_POINT('',#1646);
#477=VERTEX_POINT('',#1650);
#478=VERTEX_POINT('',#1654);
#479=VERTEX_POINT('',#1660);
#480=VERTEX_POINT('',#1661);
#481=VERTEX_POINT('',#1663);
#482=VERTEX_POINT('',#1665);
#483=VERTEX_POINT('',#1669);
#484=VERTEX_POINT('',#1671);
#485=VERTEX_POINT('',#1675);
#486=VERTEX_POINT('',#1679);
#487=VERTEX_POINT('',#1685);
#488=VERTEX_POINT('',#1686);
#489=VERTEX_POINT('',#1688);
#490=VERTEX_POINT('',#1690);
#491=VERTEX_POINT('',#1694);
#492=VERTEX_POINT('',#1696);
#493=VERTEX_POINT('',#1700);
#494=VERTEX_POINT('',#1704);
#495=VERTEX_POINT('',#1710);
#496=VERTEX_POINT('',#1711);
#497=VERTEX_POINT('',#1713);
#498=VERTEX_POINT('',#1715);
#499=VERTEX_POINT('',#1719);
#500=VERTEX_POINT('',#1721);
#501=VERTEX_POINT('',#1725);
#502=VERTEX_POINT('',#1729);
#503=VERTEX_POINT('',#1735);
#504=VERTEX_POINT('',#1737);
#505=VERTEX_POINT('',#1741);
#506=VERTEX_POINT('',#1742);
#507=VERTEX_POINT('',#1747);
#508=VERTEX_POINT('',#1748);
#509=VERTEX_POINT('',#1753);
#510=VERTEX_POINT('',#1754);
#511=VERTEX_POINT('',#1759);
#512=VERTEX_POINT('',#1764);
#513=VERTEX_POINT('',#1768);
#514=VERTEX_POINT('',#1780);
#515=VERTEX_POINT('',#1781);
#516=VERTEX_POINT('',#1783);
#517=VERTEX_POINT('',#1785);
#518=VERTEX_POINT('',#1787);
#519=VERTEX_POINT('',#1789);
#520=VERTEX_POINT('',#1791);
#521=VERTEX_POINT('',#1793);
#522=VERTEX_POINT('',#1797);
#523=VERTEX_POINT('',#1798);
#524=VERTEX_POINT('',#1803);
#525=VERTEX_POINT('',#1807);
#526=VERTEX_POINT('',#1811);
#527=VERTEX_POINT('',#1815);
#528=VERTEX_POINT('',#1819);
#529=VERTEX_POINT('',#1823);
#530=VERTEX_POINT('',#1829);
#531=VERTEX_POINT('',#1830);
#532=VERTEX_POINT('',#1835);
#533=VERTEX_POINT('',#1839);
#534=VERTEX_POINT('',#1843);
#535=VERTEX_POINT('',#1847);
#536=VERTEX_POINT('',#1851);
#537=VERTEX_POINT('',#1855);
#538=EDGE_CURVE('',#442,#443,#386,.T.);
#539=EDGE_CURVE('',#443,#444,#194,.T.);
#540=EDGE_CURVE('',#444,#445,#387,.T.);
#541=EDGE_CURVE('',#445,#442,#195,.T.);
#542=EDGE_CURVE('',#446,#447,#388,.T.);
#543=EDGE_CURVE('',#447,#445,#389,.T.);
#544=EDGE_CURVE('',#444,#446,#390,.T.);
#545=EDGE_CURVE('',#448,#449,#391,.T.);
#546=EDGE_CURVE('',#449,#447,#196,.T.);
#547=EDGE_CURVE('',#446,#448,#197,.T.);
#548=EDGE_CURVE('',#450,#451,#392,.T.);
#549=EDGE_CURVE('',#451,#449,#393,.T.);
#550=EDGE_CURVE('',#448,#450,#394,.T.);
#551=EDGE_CURVE('',#452,#453,#395,.T.);
#552=EDGE_CURVE('',#453,#451,#198,.T.);
#553=EDGE_CURVE('',#450,#452,#199,.T.);
#554=EDGE_CURVE('',#454,#455,#396,.T.);
#555=EDGE_CURVE('',#455,#453,#397,.T.);
#556=EDGE_CURVE('',#452,#454,#398,.T.);
#557=EDGE_CURVE('',#456,#457,#399,.T.);
#558=EDGE_CURVE('',#457,#455,#200,.T.);
#559=EDGE_CURVE('',#454,#456,#201,.T.);
#560=EDGE_CURVE('',#442,#457,#400,.T.);
#561=EDGE_CURVE('',#456,#443,#401,.T.);
#562=EDGE_CURVE('',#448,#458,#202,.T.);
#563=EDGE_CURVE('',#459,#458,#402,.T.);
#564=EDGE_CURVE('',#450,#459,#203,.T.);
#565=EDGE_CURVE('',#446,#460,#204,.T.);
#566=EDGE_CURVE('',#458,#460,#205,.T.);
#567=EDGE_CURVE('',#444,#461,#206,.T.);
#568=EDGE_CURVE('',#460,#461,#403,.T.);
#569=EDGE_CURVE('',#443,#462,#207,.T.);
#570=EDGE_CURVE('',#461,#462,#208,.T.);
#571=EDGE_CURVE('',#463,#464,#404,.T.);
#572=EDGE_CURVE('',#464,#465,#209,.T.);
#573=EDGE_CURVE('',#465,#466,#405,.T.);
#574=EDGE_CURVE('',#466,#467,#210,.T.);
#575=EDGE_CURVE('',#467,#468,#406,.T.);
#576=EDGE_CURVE('',#468,#469,#211,.T.);
#577=EDGE_CURVE('',#469,#470,#407,.T.);
#578=EDGE_CURVE('',#470,#463,#212,.T.);
#579=EDGE_CURVE('',#471,#472,#213,.T.);
#580=EDGE_CURVE('',#471,#473,#214,.T.);
#581=EDGE_CURVE('',#473,#474,#408,.T.);
#582=EDGE_CURVE('',#474,#472,#215,.T.);
#583=EDGE_CURVE('',#475,#471,#216,.T.);
#584=EDGE_CURVE('',#476,#475,#217,.T.);
#585=EDGE_CURVE('',#473,#476,#218,.T.);
#586=EDGE_CURVE('',#477,#476,#409,.T.);
#587=EDGE_CURVE('',#474,#477,#219,.T.);
#588=EDGE_CURVE('',#472,#478,#220,.T.);
#589=EDGE_CURVE('',#478,#477,#221,.T.);
#590=EDGE_CURVE('',#478,#475,#222,.T.);
#591=EDGE_CURVE('',#479,#480,#223,.T.);
#592=EDGE_CURVE('',#481,#479,#224,.T.);
#593=EDGE_CURVE('',#482,#481,#410,.T.);
#594=EDGE_CURVE('',#480,#482,#225,.T.);
#595=EDGE_CURVE('',#483,#479,#226,.T.);
#596=EDGE_CURVE('',#483,#484,#227,.T.);
#597=EDGE_CURVE('',#484,#481,#228,.T.);
#598=EDGE_CURVE('',#484,#485,#411,.T.);
#599=EDGE_CURVE('',#485,#482,#229,.T.);
#600=EDGE_CURVE('',#480,#486,#230,.T.);
#601=EDGE_CURVE('',#485,#486,#231,.T.);
#602=EDGE_CURVE('',#486,#483,#232,.T.);
#603=EDGE_CURVE('',#487,#488,#233,.T.);
#604=EDGE_CURVE('',#489,#487,#234,.T.);
#605=EDGE_CURVE('',#490,#489,#412,.T.);
#606=EDGE_CURVE('',#488,#490,#235,.T.);
#607=EDGE_CURVE('',#491,#487,#236,.T.);
#608=EDGE_CURVE('',#491,#492,#237,.T.);
#609=EDGE_CURVE('',#492,#489,#238,.T.);
#610=EDGE_CURVE('',#492,#493,#413,.T.);
#611=EDGE_CURVE('',#493,#490,#239,.T.);
#612=EDGE_CURVE('',#488,#494,#240,.T.);
#613=EDGE_CURVE('',#493,#494,#241,.T.);
#614=EDGE_CURVE('',#494,#491,#242,.T.);
#615=EDGE_CURVE('',#495,#496,#243,.T.);
#616=EDGE_CURVE('',#495,#497,#244,.T.);
#617=EDGE_CURVE('',#497,#498,#414,.T.);
#618=EDGE_CURVE('',#498,#496,#245,.T.);
#619=EDGE_CURVE('',#499,#495,#246,.T.);
#620=EDGE_CURVE('',#500,#499,#247,.T.);
#621=EDGE_CURVE('',#497,#500,#248,.T.);
#622=EDGE_CURVE('',#501,#500,#415,.T.);
#623=EDGE_CURVE('',#498,#501,#249,.T.);
#624=EDGE_CURVE('',#496,#502,#250,.T.);
#625=EDGE_CURVE('',#502,#501,#251,.T.);
#626=EDGE_CURVE('',#502,#499,#252,.T.);
#627=EDGE_CURVE('',#503,#461,#416,.T.);
#628=EDGE_CURVE('',#462,#504,#417,.T.);
#629=EDGE_CURVE('',#504,#503,#253,.T.);
#630=EDGE_CURVE('',#505,#506,#418,.T.);
#631=EDGE_CURVE('',#506,#504,#419,.T.);
#632=EDGE_CURVE('',#462,#505,#420,.T.);
#633=EDGE_CURVE('',#507,#508,#421,.T.);
#634=EDGE_CURVE('',#508,#506,#254,.T.);
#635=EDGE_CURVE('',#505,#507,#255,.T.);
#636=EDGE_CURVE('',#509,#510,#422,.T.);
#637=EDGE_CURVE('',#510,#508,#423,.T.);
#638=EDGE_CURVE('',#507,#509,#424,.T.);
#639=EDGE_CURVE('',#459,#511,#425,.T.);
#640=EDGE_CURVE('',#511,#510,#256,.T.);
#641=EDGE_CURVE('',#509,#459,#257,.T.);
#642=EDGE_CURVE('',#458,#512,#426,.T.);
#643=EDGE_CURVE('',#512,#511,#427,.T.);
#644=EDGE_CURVE('',#460,#513,#428,.T.);
#645=EDGE_CURVE('',#513,#512,#258,.T.);
#646=EDGE_CURVE('',#503,#513,#429,.T.);
#647=EDGE_CURVE('',#452,#509,#259,.T.);
#648=EDGE_CURVE('',#507,#454,#260,.T.);
#649=EDGE_CURVE('',#456,#505,#261,.T.);
#650=EDGE_CURVE('',#514,#515,#430,.T.);
#651=EDGE_CURVE('',#515,#516,#262,.T.);
#652=EDGE_CURVE('',#516,#517,#431,.T.);
#653=EDGE_CURVE('',#517,#518,#263,.T.);
#654=EDGE_CURVE('',#518,#519,#432,.T.);
#655=EDGE_CURVE('',#519,#520,#264,.T.);
#656=EDGE_CURVE('',#520,#521,#433,.T.);
#657=EDGE_CURVE('',#521,#514,#265,.T.);
#658=EDGE_CURVE('',#522,#523,#266,.T.);
#659=EDGE_CURVE('',#522,#463,#267,.T.);
#660=EDGE_CURVE('',#523,#470,#268,.T.);
#661=EDGE_CURVE('',#523,#524,#434,.T.);
#662=EDGE_CURVE('',#524,#469,#269,.T.);
#663=EDGE_CURVE('',#524,#525,#270,.T.);
#664=EDGE_CURVE('',#525,#468,#271,.T.);
#665=EDGE_CURVE('',#525,#526,#435,.T.);
#666=EDGE_CURVE('',#526,#467,#272,.T.);
#667=EDGE_CURVE('',#526,#527,#273,.T.);
#668=EDGE_CURVE('',#527,#466,#274,.T.);
#669=EDGE_CURVE('',#527,#528,#436,.T.);
#670=EDGE_CURVE('',#528,#465,#275,.T.);
#671=EDGE_CURVE('',#528,#529,#276,.T.);
#672=EDGE_CURVE('',#529,#464,#277,.T.);
#673=EDGE_CURVE('',#529,#522,#437,.T.);
#674=EDGE_CURVE('',#530,#531,#278,.T.);
#675=EDGE_CURVE('',#531,#514,#279,.T.);
#676=EDGE_CURVE('',#530,#521,#280,.T.);
#677=EDGE_CURVE('',#532,#530,#438,.T.);
#678=EDGE_CURVE('',#532,#520,#281,.T.);
#679=EDGE_CURVE('',#533,#532,#282,.T.);
#680=EDGE_CURVE('',#533,#519,#283,.T.);
#681=EDGE_CURVE('',#534,#533,#439,.T.);
#682=EDGE_CURVE('',#534,#518,#284,.T.);
#683=EDGE_CURVE('',#535,#534,#285,.T.);
#684=EDGE_CURVE('',#535,#517,#286,.T.);
#685=EDGE_CURVE('',#536,#535,#440,.T.);
#686=EDGE_CURVE('',#536,#516,#287,.T.);
#687=EDGE_CURVE('',#537,#536,#288,.T.);
#688=EDGE_CURVE('',#537,#515,#289,.T.);
#689=EDGE_CURVE('',#531,#537,#441,.T.);
#690=ORIENTED_EDGE('',*,*,#538,.T.);
#691=ORIENTED_EDGE('',*,*,#539,.T.);
#692=ORIENTED_EDGE('',*,*,#540,.T.);
#693=ORIENTED_EDGE('',*,*,#541,.T.);
#694=ORIENTED_EDGE('',*,*,#542,.T.);
#695=ORIENTED_EDGE('',*,*,#543,.T.);
#696=ORIENTED_EDGE('',*,*,#540,.F.);
#697=ORIENTED_EDGE('',*,*,#544,.T.);
#698=ORIENTED_EDGE('',*,*,#545,.T.);
#699=ORIENTED_EDGE('',*,*,#546,.T.);
#700=ORIENTED_EDGE('',*,*,#542,.F.);
#701=ORIENTED_EDGE('',*,*,#547,.T.);
#702=ORIENTED_EDGE('',*,*,#548,.T.);
#703=ORIENTED_EDGE('',*,*,#549,.T.);
#704=ORIENTED_EDGE('',*,*,#545,.F.);
#705=ORIENTED_EDGE('',*,*,#550,.T.);
#706=ORIENTED_EDGE('',*,*,#551,.T.);
#707=ORIENTED_EDGE('',*,*,#552,.T.);
#708=ORIENTED_EDGE('',*,*,#548,.F.);
#709=ORIENTED_EDGE('',*,*,#553,.T.);
#710=ORIENTED_EDGE('',*,*,#554,.T.);
#711=ORIENTED_EDGE('',*,*,#555,.T.);
#712=ORIENTED_EDGE('',*,*,#551,.F.);
#713=ORIENTED_EDGE('',*,*,#556,.T.);
#714=ORIENTED_EDGE('',*,*,#557,.T.);
#715=ORIENTED_EDGE('',*,*,#558,.T.);
#716=ORIENTED_EDGE('',*,*,#554,.F.);
#717=ORIENTED_EDGE('',*,*,#559,.T.);
#718=ORIENTED_EDGE('',*,*,#538,.F.);
#719=ORIENTED_EDGE('',*,*,#560,.T.);
#720=ORIENTED_EDGE('',*,*,#557,.F.);
#721=ORIENTED_EDGE('',*,*,#561,.T.);
#722=ORIENTED_EDGE('',*,*,#550,.F.);
#723=ORIENTED_EDGE('',*,*,#562,.T.);
#724=ORIENTED_EDGE('',*,*,#563,.F.);
#725=ORIENTED_EDGE('',*,*,#564,.F.);
#726=ORIENTED_EDGE('',*,*,#547,.F.);
#727=ORIENTED_EDGE('',*,*,#565,.T.);
#728=ORIENTED_EDGE('',*,*,#566,.F.);
#729=ORIENTED_EDGE('',*,*,#562,.F.);
#730=ORIENTED_EDGE('',*,*,#544,.F.);
#731=ORIENTED_EDGE('',*,*,#567,.T.);
#732=ORIENTED_EDGE('',*,*,#568,.F.);
#733=ORIENTED_EDGE('',*,*,#565,.F.);
#734=ORIENTED_EDGE('',*,*,#539,.F.);
#735=ORIENTED_EDGE('',*,*,#569,.T.);
#736=ORIENTED_EDGE('',*,*,#570,.F.);
#737=ORIENTED_EDGE('',*,*,#567,.F.);
#738=ORIENTED_EDGE('',*,*,#541,.F.);
#739=ORIENTED_EDGE('',*,*,#543,.F.);
#740=ORIENTED_EDGE('',*,*,#546,.F.);
#741=ORIENTED_EDGE('',*,*,#549,.F.);
#742=ORIENTED_EDGE('',*,*,#552,.F.);
#743=ORIENTED_EDGE('',*,*,#555,.F.);
#744=ORIENTED_EDGE('',*,*,#558,.F.);
#745=ORIENTED_EDGE('',*,*,#560,.F.);
#746=ORIENTED_EDGE('',*,*,#571,.T.);
#747=ORIENTED_EDGE('',*,*,#572,.T.);
#748=ORIENTED_EDGE('',*,*,#573,.T.);
#749=ORIENTED_EDGE('',*,*,#574,.T.);
#750=ORIENTED_EDGE('',*,*,#575,.T.);
#751=ORIENTED_EDGE('',*,*,#576,.T.);
#752=ORIENTED_EDGE('',*,*,#577,.T.);
#753=ORIENTED_EDGE('',*,*,#578,.T.);
#754=ORIENTED_EDGE('',*,*,#579,.F.);
#755=ORIENTED_EDGE('',*,*,#580,.T.);
#756=ORIENTED_EDGE('',*,*,#581,.T.);
#757=ORIENTED_EDGE('',*,*,#582,.T.);
#758=ORIENTED_EDGE('',*,*,#583,.F.);
#759=ORIENTED_EDGE('',*,*,#584,.F.);
#760=ORIENTED_EDGE('',*,*,#585,.F.);
#761=ORIENTED_EDGE('',*,*,#580,.F.);
#762=ORIENTED_EDGE('',*,*,#581,.F.);
#763=ORIENTED_EDGE('',*,*,#585,.T.);
#764=ORIENTED_EDGE('',*,*,#586,.F.);
#765=ORIENTED_EDGE('',*,*,#587,.F.);
#766=ORIENTED_EDGE('',*,*,#588,.F.);
#767=ORIENTED_EDGE('',*,*,#582,.F.);
#768=ORIENTED_EDGE('',*,*,#587,.T.);
#769=ORIENTED_EDGE('',*,*,#589,.F.);
#770=ORIENTED_EDGE('',*,*,#590,.F.);
#771=ORIENTED_EDGE('',*,*,#589,.T.);
#772=ORIENTED_EDGE('',*,*,#586,.T.);
#773=ORIENTED_EDGE('',*,*,#584,.T.);
#774=ORIENTED_EDGE('',*,*,#591,.F.);
#775=ORIENTED_EDGE('',*,*,#592,.F.);
#776=ORIENTED_EDGE('',*,*,#593,.F.);
#777=ORIENTED_EDGE('',*,*,#594,.F.);
#778=ORIENTED_EDGE('',*,*,#595,.F.);
#779=ORIENTED_EDGE('',*,*,#596,.T.);
#780=ORIENTED_EDGE('',*,*,#597,.T.);
#781=ORIENTED_EDGE('',*,*,#592,.T.);
#782=ORIENTED_EDGE('',*,*,#598,.T.);
#783=ORIENTED_EDGE('',*,*,#599,.T.);
#784=ORIENTED_EDGE('',*,*,#593,.T.);
#785=ORIENTED_EDGE('',*,*,#597,.F.);
#786=ORIENTED_EDGE('',*,*,#600,.F.);
#787=ORIENTED_EDGE('',*,*,#594,.T.);
#788=ORIENTED_EDGE('',*,*,#599,.F.);
#789=ORIENTED_EDGE('',*,*,#601,.T.);
#790=ORIENTED_EDGE('',*,*,#602,.F.);
#791=ORIENTED_EDGE('',*,*,#601,.F.);
#792=ORIENTED_EDGE('',*,*,#598,.F.);
#793=ORIENTED_EDGE('',*,*,#596,.F.);
#794=ORIENTED_EDGE('',*,*,#603,.F.);
#795=ORIENTED_EDGE('',*,*,#604,.F.);
#796=ORIENTED_EDGE('',*,*,#605,.F.);
#797=ORIENTED_EDGE('',*,*,#606,.F.);
#798=ORIENTED_EDGE('',*,*,#607,.F.);
#799=ORIENTED_EDGE('',*,*,#608,.T.);
#800=ORIENTED_EDGE('',*,*,#609,.T.);
#801=ORIENTED_EDGE('',*,*,#604,.T.);
#802=ORIENTED_EDGE('',*,*,#610,.T.);
#803=ORIENTED_EDGE('',*,*,#611,.T.);
#804=ORIENTED_EDGE('',*,*,#605,.T.);
#805=ORIENTED_EDGE('',*,*,#609,.F.);
#806=ORIENTED_EDGE('',*,*,#612,.F.);
#807=ORIENTED_EDGE('',*,*,#606,.T.);
#808=ORIENTED_EDGE('',*,*,#611,.F.);
#809=ORIENTED_EDGE('',*,*,#613,.T.);
#810=ORIENTED_EDGE('',*,*,#614,.F.);
#811=ORIENTED_EDGE('',*,*,#613,.F.);
#812=ORIENTED_EDGE('',*,*,#610,.F.);
#813=ORIENTED_EDGE('',*,*,#608,.F.);
#814=ORIENTED_EDGE('',*,*,#615,.F.);
#815=ORIENTED_EDGE('',*,*,#616,.T.);
#816=ORIENTED_EDGE('',*,*,#617,.T.);
#817=ORIENTED_EDGE('',*,*,#618,.T.);
#818=ORIENTED_EDGE('',*,*,#619,.F.);
#819=ORIENTED_EDGE('',*,*,#620,.F.);
#820=ORIENTED_EDGE('',*,*,#621,.F.);
#821=ORIENTED_EDGE('',*,*,#616,.F.);
#822=ORIENTED_EDGE('',*,*,#617,.F.);
#823=ORIENTED_EDGE('',*,*,#621,.T.);
#824=ORIENTED_EDGE('',*,*,#622,.F.);
#825=ORIENTED_EDGE('',*,*,#623,.F.);
#826=ORIENTED_EDGE('',*,*,#624,.F.);
#827=ORIENTED_EDGE('',*,*,#618,.F.);
#828=ORIENTED_EDGE('',*,*,#623,.T.);
#829=ORIENTED_EDGE('',*,*,#625,.F.);
#830=ORIENTED_EDGE('',*,*,#626,.F.);
#831=ORIENTED_EDGE('',*,*,#625,.T.);
#832=ORIENTED_EDGE('',*,*,#622,.T.);
#833=ORIENTED_EDGE('',*,*,#620,.T.);
#834=ORIENTED_EDGE('',*,*,#627,.T.);
#835=ORIENTED_EDGE('',*,*,#570,.T.);
#836=ORIENTED_EDGE('',*,*,#628,.T.);
#837=ORIENTED_EDGE('',*,*,#629,.T.);
#838=ORIENTED_EDGE('',*,*,#630,.T.);
#839=ORIENTED_EDGE('',*,*,#631,.T.);
#840=ORIENTED_EDGE('',*,*,#628,.F.);
#841=ORIENTED_EDGE('',*,*,#632,.T.);
#842=ORIENTED_EDGE('',*,*,#633,.T.);
#843=ORIENTED_EDGE('',*,*,#634,.T.);
#844=ORIENTED_EDGE('',*,*,#630,.F.);
#845=ORIENTED_EDGE('',*,*,#635,.T.);
#846=ORIENTED_EDGE('',*,*,#636,.T.);
#847=ORIENTED_EDGE('',*,*,#637,.T.);
#848=ORIENTED_EDGE('',*,*,#633,.F.);
#849=ORIENTED_EDGE('',*,*,#638,.T.);
#850=ORIENTED_EDGE('',*,*,#639,.T.);
#851=ORIENTED_EDGE('',*,*,#640,.T.);
#852=ORIENTED_EDGE('',*,*,#636,.F.);
#853=ORIENTED_EDGE('',*,*,#641,.T.);
#854=ORIENTED_EDGE('',*,*,#642,.T.);
#855=ORIENTED_EDGE('',*,*,#643,.T.);
#856=ORIENTED_EDGE('',*,*,#639,.F.);
#857=ORIENTED_EDGE('',*,*,#563,.T.);
#858=ORIENTED_EDGE('',*,*,#644,.T.);
#859=ORIENTED_EDGE('',*,*,#645,.T.);
#860=ORIENTED_EDGE('',*,*,#642,.F.);
#861=ORIENTED_EDGE('',*,*,#566,.T.);
#862=ORIENTED_EDGE('',*,*,#627,.F.);
#863=ORIENTED_EDGE('',*,*,#646,.T.);
#864=ORIENTED_EDGE('',*,*,#644,.F.);
#865=ORIENTED_EDGE('',*,*,#568,.T.);
#866=ORIENTED_EDGE('',*,*,#556,.F.);
#867=ORIENTED_EDGE('',*,*,#647,.T.);
#868=ORIENTED_EDGE('',*,*,#638,.F.);
#869=ORIENTED_EDGE('',*,*,#648,.T.);
#870=ORIENTED_EDGE('',*,*,#559,.F.);
#871=ORIENTED_EDGE('',*,*,#648,.F.);
#872=ORIENTED_EDGE('',*,*,#635,.F.);
#873=ORIENTED_EDGE('',*,*,#649,.F.);
#874=ORIENTED_EDGE('',*,*,#561,.F.);
#875=ORIENTED_EDGE('',*,*,#649,.T.);
#876=ORIENTED_EDGE('',*,*,#632,.F.);
#877=ORIENTED_EDGE('',*,*,#569,.F.);
#878=ORIENTED_EDGE('',*,*,#629,.F.);
#879=ORIENTED_EDGE('',*,*,#631,.F.);
#880=ORIENTED_EDGE('',*,*,#634,.F.);
#881=ORIENTED_EDGE('',*,*,#637,.F.);
#882=ORIENTED_EDGE('',*,*,#640,.F.);
#883=ORIENTED_EDGE('',*,*,#643,.F.);
#884=ORIENTED_EDGE('',*,*,#645,.F.);
#885=ORIENTED_EDGE('',*,*,#646,.F.);
#886=ORIENTED_EDGE('',*,*,#650,.T.);
#887=ORIENTED_EDGE('',*,*,#651,.T.);
#888=ORIENTED_EDGE('',*,*,#652,.T.);
#889=ORIENTED_EDGE('',*,*,#653,.T.);
#890=ORIENTED_EDGE('',*,*,#654,.T.);
#891=ORIENTED_EDGE('',*,*,#655,.T.);
#892=ORIENTED_EDGE('',*,*,#656,.T.);
#893=ORIENTED_EDGE('',*,*,#657,.T.);
#894=ORIENTED_EDGE('',*,*,#658,.F.);
#895=ORIENTED_EDGE('',*,*,#659,.T.);
#896=ORIENTED_EDGE('',*,*,#578,.F.);
#897=ORIENTED_EDGE('',*,*,#660,.F.);
#898=ORIENTED_EDGE('',*,*,#607,.T.);
#899=ORIENTED_EDGE('',*,*,#603,.T.);
#900=ORIENTED_EDGE('',*,*,#612,.T.);
#901=ORIENTED_EDGE('',*,*,#614,.T.);
#902=ORIENTED_EDGE('',*,*,#619,.T.);
#903=ORIENTED_EDGE('',*,*,#615,.T.);
#904=ORIENTED_EDGE('',*,*,#624,.T.);
#905=ORIENTED_EDGE('',*,*,#626,.T.);
#906=ORIENTED_EDGE('',*,*,#661,.F.);
#907=ORIENTED_EDGE('',*,*,#660,.T.);
#908=ORIENTED_EDGE('',*,*,#577,.F.);
#909=ORIENTED_EDGE('',*,*,#662,.F.);
#910=ORIENTED_EDGE('',*,*,#663,.F.);
#911=ORIENTED_EDGE('',*,*,#662,.T.);
#912=ORIENTED_EDGE('',*,*,#576,.F.);
#913=ORIENTED_EDGE('',*,*,#664,.F.);
#914=ORIENTED_EDGE('',*,*,#665,.F.);
#915=ORIENTED_EDGE('',*,*,#664,.T.);
#916=ORIENTED_EDGE('',*,*,#575,.F.);
#917=ORIENTED_EDGE('',*,*,#666,.F.);
#918=ORIENTED_EDGE('',*,*,#667,.F.);
#919=ORIENTED_EDGE('',*,*,#666,.T.);
#920=ORIENTED_EDGE('',*,*,#574,.F.);
#921=ORIENTED_EDGE('',*,*,#668,.F.);
#922=ORIENTED_EDGE('',*,*,#583,.T.);
#923=ORIENTED_EDGE('',*,*,#579,.T.);
#924=ORIENTED_EDGE('',*,*,#588,.T.);
#925=ORIENTED_EDGE('',*,*,#590,.T.);
#926=ORIENTED_EDGE('',*,*,#595,.T.);
#927=ORIENTED_EDGE('',*,*,#591,.T.);
#928=ORIENTED_EDGE('',*,*,#600,.T.);
#929=ORIENTED_EDGE('',*,*,#602,.T.);
#930=ORIENTED_EDGE('',*,*,#669,.F.);
#931=ORIENTED_EDGE('',*,*,#668,.T.);
#932=ORIENTED_EDGE('',*,*,#573,.F.);
#933=ORIENTED_EDGE('',*,*,#670,.F.);
#934=ORIENTED_EDGE('',*,*,#671,.F.);
#935=ORIENTED_EDGE('',*,*,#670,.T.);
#936=ORIENTED_EDGE('',*,*,#572,.F.);
#937=ORIENTED_EDGE('',*,*,#672,.F.);
#938=ORIENTED_EDGE('',*,*,#673,.F.);
#939=ORIENTED_EDGE('',*,*,#672,.T.);
#940=ORIENTED_EDGE('',*,*,#571,.F.);
#941=ORIENTED_EDGE('',*,*,#659,.F.);
#942=ORIENTED_EDGE('',*,*,#674,.T.);
#943=ORIENTED_EDGE('',*,*,#675,.T.);
#944=ORIENTED_EDGE('',*,*,#657,.F.);
#945=ORIENTED_EDGE('',*,*,#676,.F.);
#946=ORIENTED_EDGE('',*,*,#677,.T.);
#947=ORIENTED_EDGE('',*,*,#676,.T.);
#948=ORIENTED_EDGE('',*,*,#656,.F.);
#949=ORIENTED_EDGE('',*,*,#678,.F.);
#950=ORIENTED_EDGE('',*,*,#679,.T.);
#951=ORIENTED_EDGE('',*,*,#678,.T.);
#952=ORIENTED_EDGE('',*,*,#655,.F.);
#953=ORIENTED_EDGE('',*,*,#680,.F.);
#954=ORIENTED_EDGE('',*,*,#681,.T.);
#955=ORIENTED_EDGE('',*,*,#680,.T.);
#956=ORIENTED_EDGE('',*,*,#654,.F.);
#957=ORIENTED_EDGE('',*,*,#682,.F.);
#958=ORIENTED_EDGE('',*,*,#683,.T.);
#959=ORIENTED_EDGE('',*,*,#682,.T.);
#960=ORIENTED_EDGE('',*,*,#653,.F.);
#961=ORIENTED_EDGE('',*,*,#684,.F.);
#962=ORIENTED_EDGE('',*,*,#685,.T.);
#963=ORIENTED_EDGE('',*,*,#684,.T.);
#964=ORIENTED_EDGE('',*,*,#652,.F.);
#965=ORIENTED_EDGE('',*,*,#686,.F.);
#966=ORIENTED_EDGE('',*,*,#687,.T.);
#967=ORIENTED_EDGE('',*,*,#686,.T.);
#968=ORIENTED_EDGE('',*,*,#651,.F.);
#969=ORIENTED_EDGE('',*,*,#688,.F.);
#970=ORIENTED_EDGE('',*,*,#689,.T.);
#971=ORIENTED_EDGE('',*,*,#688,.T.);
#972=ORIENTED_EDGE('',*,*,#650,.F.);
#973=ORIENTED_EDGE('',*,*,#675,.F.);
#974=ORIENTED_EDGE('',*,*,#553,.F.);
#975=ORIENTED_EDGE('',*,*,#564,.T.);
#976=ORIENTED_EDGE('',*,*,#641,.F.);
#977=ORIENTED_EDGE('',*,*,#647,.F.);
#978=ORIENTED_EDGE('',*,*,#658,.T.);
#979=ORIENTED_EDGE('',*,*,#661,.T.);
#980=ORIENTED_EDGE('',*,*,#663,.T.);
#981=ORIENTED_EDGE('',*,*,#665,.T.);
#982=ORIENTED_EDGE('',*,*,#667,.T.);
#983=ORIENTED_EDGE('',*,*,#669,.T.);
#984=ORIENTED_EDGE('',*,*,#671,.T.);
#985=ORIENTED_EDGE('',*,*,#673,.T.);
#986=ORIENTED_EDGE('',*,*,#689,.F.);
#987=ORIENTED_EDGE('',*,*,#674,.F.);
#988=ORIENTED_EDGE('',*,*,#677,.F.);
#989=ORIENTED_EDGE('',*,*,#679,.F.);
#990=ORIENTED_EDGE('',*,*,#681,.F.);
#991=ORIENTED_EDGE('',*,*,#683,.F.);
#992=ORIENTED_EDGE('',*,*,#685,.F.);
#993=ORIENTED_EDGE('',*,*,#687,.F.);
#994=CYLINDRICAL_SURFACE('',#1095,1.);
#995=CYLINDRICAL_SURFACE('',#1102,1.);
#996=CYLINDRICAL_SURFACE('',#1108,1.);
#997=CYLINDRICAL_SURFACE('',#1114,1.);
#998=CYLINDRICAL_SURFACE('',#1119,6.3);
#999=CYLINDRICAL_SURFACE('',#1122,6.29999999999999);
#1000=CYLINDRICAL_SURFACE('',#1133,0.699999999999994);
#1001=CYLINDRICAL_SURFACE('',#1140,0.699999999999994);
#1002=CYLINDRICAL_SURFACE('',#1147,0.699999999999994);
#1003=CYLINDRICAL_SURFACE('',#1154,0.699999999999994);
#1004=CYLINDRICAL_SURFACE('',#1158,1.5);
#1005=CYLINDRICAL_SURFACE('',#1165,1.5);
#1006=CYLINDRICAL_SURFACE('',#1171,1.5);
#1007=CYLINDRICAL_SURFACE('',#1176,1.5);
#1008=CYLINDRICAL_SURFACE('',#1180,6.30000000000002);
#1009=CYLINDRICAL_SURFACE('',#1182,6.30000000000001);
#1010=CYLINDRICAL_SURFACE('',#1189,4.99999999999999);
#1011=CYLINDRICAL_SURFACE('',#1192,5.00000000000002);
#1012=CYLINDRICAL_SURFACE('',#1195,5.);
#1013=CYLINDRICAL_SURFACE('',#1198,4.99999999999999);
#1014=CYLINDRICAL_SURFACE('',#1201,1.99999999999999);
#1015=CYLINDRICAL_SURFACE('',#1204,2.00000000000001);
#1016=CYLINDRICAL_SURFACE('',#1207,2.00000000000002);
#1017=CYLINDRICAL_SURFACE('',#1210,2.00000000000002);
#1018=ADVANCED_FACE('',(#61),#994,.T.);
#1019=ADVANCED_FACE('',(#62),#53,.T.);
#1020=ADVANCED_FACE('',(#63),#995,.T.);
#1021=ADVANCED_FACE('',(#64),#54,.T.);
#1022=ADVANCED_FACE('',(#65),#996,.T.);
#1023=ADVANCED_FACE('',(#66),#55,.T.);
#1024=ADVANCED_FACE('',(#67),#997,.T.);
#1025=ADVANCED_FACE('',(#68),#56,.T.);
#1026=ADVANCED_FACE('',(#69),#998,.T.);
#1027=ADVANCED_FACE('',(#70),#22,.T.);
#1028=ADVANCED_FACE('',(#71),#999,.T.);
#1029=ADVANCED_FACE('',(#72),#23,.T.);
#1030=ADVANCED_FACE('',(#73,#15),#24,.F.);
#1031=ADVANCED_FACE('',(#74),#25,.T.);
#1032=ADVANCED_FACE('',(#75),#26,.T.);
#1033=ADVANCED_FACE('',(#76),#1000,.T.);
#1034=ADVANCED_FACE('',(#77),#27,.T.);
#1035=ADVANCED_FACE('',(#78),#28,.F.);
#1036=ADVANCED_FACE('',(#79),#29,.T.);
#1037=ADVANCED_FACE('',(#80),#30,.F.);
#1038=ADVANCED_FACE('',(#81),#1001,.T.);
#1039=ADVANCED_FACE('',(#82),#31,.F.);
#1040=ADVANCED_FACE('',(#83),#32,.F.);
#1041=ADVANCED_FACE('',(#84),#33,.T.);
#1042=ADVANCED_FACE('',(#85),#34,.F.);
#1043=ADVANCED_FACE('',(#86),#1002,.T.);
#1044=ADVANCED_FACE('',(#87),#35,.F.);
#1045=ADVANCED_FACE('',(#88),#36,.F.);
#1046=ADVANCED_FACE('',(#89),#37,.T.);
#1047=ADVANCED_FACE('',(#90),#38,.T.);
#1048=ADVANCED_FACE('',(#91),#1003,.T.);
#1049=ADVANCED_FACE('',(#92),#39,.T.);
#1050=ADVANCED_FACE('',(#93),#40,.F.);
#1051=ADVANCED_FACE('',(#94),#1004,.T.);
#1052=ADVANCED_FACE('',(#95),#57,.T.);
#1053=ADVANCED_FACE('',(#96),#1005,.T.);
#1054=ADVANCED_FACE('',(#97),#58,.T.);
#1055=ADVANCED_FACE('',(#98),#1006,.T.);
#1056=ADVANCED_FACE('',(#99),#59,.T.);
#1057=ADVANCED_FACE('',(#100),#1007,.T.);
#1058=ADVANCED_FACE('',(#101),#60,.T.);
#1059=ADVANCED_FACE('',(#102),#1008,.T.);
#1060=ADVANCED_FACE('',(#103),#41,.T.);
#1061=ADVANCED_FACE('',(#104),#1009,.T.);
#1062=ADVANCED_FACE('',(#105,#16),#42,.T.);
#1063=ADVANCED_FACE('',(#106,#17,#18),#43,.T.);
#1064=ADVANCED_FACE('',(#107),#1010,.F.);
#1065=ADVANCED_FACE('',(#108),#44,.T.);
#1066=ADVANCED_FACE('',(#109),#1011,.F.);
#1067=ADVANCED_FACE('',(#110,#19,#20),#45,.T.);
#1068=ADVANCED_FACE('',(#111),#1012,.F.);
#1069=ADVANCED_FACE('',(#112),#46,.T.);
#1070=ADVANCED_FACE('',(#113),#1013,.F.);
#1071=ADVANCED_FACE('',(#114),#47,.T.);
#1072=ADVANCED_FACE('',(#115),#1014,.F.);
#1073=ADVANCED_FACE('',(#116),#48,.T.);
#1074=ADVANCED_FACE('',(#117),#1015,.F.);
#1075=ADVANCED_FACE('',(#118),#49,.T.);
#1076=ADVANCED_FACE('',(#119),#1016,.F.);
#1077=ADVANCED_FACE('',(#120),#50,.T.);
#1078=ADVANCED_FACE('',(#121),#1017,.F.);
#1079=ADVANCED_FACE('',(#122),#51,.T.);
#1080=ADVANCED_FACE('',(#123,#21),#52,.F.);
#1081=CLOSED_SHELL('',(#1018,#1019,#1020,#1021,#1022,#1023,#1024,#1025,
#1026,#1027,#1028,#1029,#1030,#1031,#1032,#1033,#1034,#1035,#1036,#1037,
#1038,#1039,#1040,#1041,#1042,#1043,#1044,#1045,#1046,#1047,#1048,#1049,
#1050,#1051,#1052,#1053,#1054,#1055,#1056,#1057,#1058,#1059,#1060,#1061,
#1062,#1063,#1064,#1065,#1066,#1067,#1068,#1069,#1070,#1071,#1072,#1073,
#1074,#1075,#1076,#1077,#1078,#1079,#1080));
#1082=DERIVED_UNIT_ELEMENT(#1084,1.);
#1083=DERIVED_UNIT_ELEMENT(#1867,-3.);
#1084=(
MASS_UNIT()
NAMED_UNIT(*)
SI_UNIT(.KILO.,.GRAM.)
);
#1085=DERIVED_UNIT((#1082,#1083));
#1086=MEASURE_REPRESENTATION_ITEM('density measure',
POSITIVE_RATIO_MEASURE(7850.),#1085);
#1087=PROPERTY_DEFINITION_REPRESENTATION(#1092,#1089);
#1088=PROPERTY_DEFINITION_REPRESENTATION(#1093,#1090);
#1089=REPRESENTATION('material name',(#1091),#1864);
#1090=REPRESENTATION('density',(#1086),#1864);
#1091=DESCRIPTIVE_REPRESENTATION_ITEM('\X2\94A2\X0\','\X2\94A2\X0\');
#1092=PROPERTY_DEFINITION('material property','material name',#1874);
#1093=PROPERTY_DEFINITION('material property','density of part',#1874);
#1094=AXIS2_PLACEMENT_3D('',#1550,#1214,#1215);
#1095=AXIS2_PLACEMENT_3D('',#1551,#1216,#1217);
#1096=AXIS2_PLACEMENT_3D('',#1554,#1218,#1219);
#1097=AXIS2_PLACEMENT_3D('',#1558,#1221,#1222);
#1098=AXIS2_PLACEMENT_3D('',#1560,#1224,#1225);
#1099=AXIS2_PLACEMENT_3D('',#1563,#1226,#1227);
#1100=AXIS2_PLACEMENT_3D('',#1564,#1228,#1229);
#1101=AXIS2_PLACEMENT_3D('',#1565,#1230,#1231);
#1102=AXIS2_PLACEMENT_3D('',#1566,#1232,#1233);
#1103=AXIS2_PLACEMENT_3D('',#1569,#1234,#1235);
#1104=AXIS2_PLACEMENT_3D('',#1572,#1238,#1239);
#1105=AXIS2_PLACEMENT_3D('',#1575,#1240,#1241);
#1106=AXIS2_PLACEMENT_3D('',#1576,#1242,#1243);
#1107=AXIS2_PLACEMENT_3D('',#1577,#1244,#1245);
#1108=AXIS2_PLACEMENT_3D('',#1578,#1246,#1247);
#1109=AXIS2_PLACEMENT_3D('',#1581,#1248,#1249);
#1110=AXIS2_PLACEMENT_3D('',#1584,#1252,#1253);
#1111=AXIS2_PLACEMENT_3D('',#1587,#1254,#1255);
#1112=AXIS2_PLACEMENT_3D('',#1588,#1256,#1257);
#1113=AXIS2_PLACEMENT_3D('',#1589,#1258,#1259);
#1114=AXIS2_PLACEMENT_3D('',#1590,#1260,#1261);
#1115=AXIS2_PLACEMENT_3D('',#1593,#1262,#1263);
#1116=AXIS2_PLACEMENT_3D('',#1596,#1266,#1267);
#1117=AXIS2_PLACEMENT_3D('',#1597,#1268,#1269);
#1118=AXIS2_PLACEMENT_3D('',#1598,#1270,#1271);
#1119=AXIS2_PLACEMENT_3D('',#1599,#1272,#1273);
#1120=AXIS2_PLACEMENT_3D('',#1603,#1275,#1276);
#1121=AXIS2_PLACEMENT_3D('',#1605,#1278,#1279);
#1122=AXIS2_PLACEMENT_3D('',#1609,#1282,#1283);
#1123=AXIS2_PLACEMENT_3D('',#1612,#1285,#1286);
#1124=AXIS2_PLACEMENT_3D('',#1613,#1287,#1288);
#1125=AXIS2_PLACEMENT_3D('',#1617,#1291,#1292);
#1126=AXIS2_PLACEMENT_3D('',#1620,#1293,#1294);
#1127=AXIS2_PLACEMENT_3D('',#1624,#1296,#1297);
#1128=AXIS2_PLACEMENT_3D('',#1628,#1299,#1300);
#1129=AXIS2_PLACEMENT_3D('',#1632,#1302,#1303);
#1130=AXIS2_PLACEMENT_3D('',#1634,#1305,#1306);
#1131=AXIS2_PLACEMENT_3D('',#1641,#1309,#1310);
#1132=AXIS2_PLACEMENT_3D('',#1643,#1312,#1313);
#1133=AXIS2_PLACEMENT_3D('',#1649,#1317,#1318);
#1134=AXIS2_PLACEMENT_3D('',#1651,#1319,#1320);
#1135=AXIS2_PLACEMENT_3D('',#1653,#1322,#1323);
#1136=AXIS2_PLACEMENT_3D('',#1657,#1326,#1327);
#1137=AXIS2_PLACEMENT_3D('',#1659,#1329,#1330);
#1138=AXIS2_PLACEMENT_3D('',#1666,#1333,#1334);
#1139=AXIS2_PLACEMENT_3D('',#1668,#1336,#1337);
#1140=AXIS2_PLACEMENT_3D('',#1674,#1341,#1342);
#1141=AXIS2_PLACEMENT_3D('',#1676,#1343,#1344);
#1142=AXIS2_PLACEMENT_3D('',#1678,#1346,#1347);
#1143=AXIS2_PLACEMENT_3D('',#1682,#1350,#1351);
#1144=AXIS2_PLACEMENT_3D('',#1684,#1353,#1354);
#1145=AXIS2_PLACEMENT_3D('',#1691,#1357,#1358);
#1146=AXIS2_PLACEMENT_3D('',#1693,#1360,#1361);
#1147=AXIS2_PLACEMENT_3D('',#1699,#1365,#1366);
#1148=AXIS2_PLACEMENT_3D('',#1701,#1367,#1368);
#1149=AXIS2_PLACEMENT_3D('',#1703,#1370,#1371);
#1150=AXIS2_PLACEMENT_3D('',#1707,#1374,#1375);
#1151=AXIS2_PLACEMENT_3D('',#1709,#1377,#1378);
#1152=AXIS2_PLACEMENT_3D('',#1716,#1381,#1382);
#1153=AXIS2_PLACEMENT_3D('',#1718,#1384,#1385);
#1154=AXIS2_PLACEMENT_3D('',#1724,#1389,#1390);
#1155=AXIS2_PLACEMENT_3D('',#1726,#1391,#1392);
#1156=AXIS2_PLACEMENT_3D('',#1728,#1394,#1395);
#1157=AXIS2_PLACEMENT_3D('',#1732,#1398,#1399);
#1158=AXIS2_PLACEMENT_3D('',#1734,#1401,#1402);
#1159=AXIS2_PLACEMENT_3D('',#1736,#1403,#1404);
#1160=AXIS2_PLACEMENT_3D('',#1738,#1405,#1406);
#1161=AXIS2_PLACEMENT_3D('',#1740,#1408,#1409);
#1162=AXIS2_PLACEMENT_3D('',#1743,#1410,#1411);
#1163=AXIS2_PLACEMENT_3D('',#1744,#1412,#1413);
#1164=AXIS2_PLACEMENT_3D('',#1745,#1414,#1415);
#1165=AXIS2_PLACEMENT_3D('',#1746,#1416,#1417);
#1166=AXIS2_PLACEMENT_3D('',#1749,#1418,#1419);
#1167=AXIS2_PLACEMENT_3D('',#1752,#1422,#1423);
#1168=AXIS2_PLACEMENT_3D('',#1755,#1424,#1425);
#1169=AXIS2_PLACEMENT_3D('',#1756,#1426,#1427);
#1170=AXIS2_PLACEMENT_3D('',#1757,#1428,#1429);
#1171=AXIS2_PLACEMENT_3D('',#1758,#1430,#1431);
#1172=AXIS2_PLACEMENT_3D('',#1760,#1432,#1433);
#1173=AXIS2_PLACEMENT_3D('',#1763,#1436,#1437);
#1174=AXIS2_PLACEMENT_3D('',#1765,#1438,#1439);
#1175=AXIS2_PLACEMENT_3D('',#1766,#1440,#1441);
#1176=AXIS2_PLACEMENT_3D('',#1767,#1442,#1443);
#1177=AXIS2_PLACEMENT_3D('',#1769,#1444,#1445);
#1178=AXIS2_PLACEMENT_3D('',#1771,#1447,#1448);
#1179=AXIS2_PLACEMENT_3D('',#1772,#1449,#1450);
#1180=AXIS2_PLACEMENT_3D('',#1773,#1451,#1452);
#1181=AXIS2_PLACEMENT_3D('',#1776,#1455,#1456);
#1182=AXIS2_PLACEMENT_3D('',#1778,#1458,#1459);
#1183=AXIS2_PLACEMENT_3D('',#1779,#1460,#1461);
#1184=AXIS2_PLACEMENT_3D('',#1782,#1462,#1463);
#1185=AXIS2_PLACEMENT_3D('',#1786,#1465,#1466);
#1186=AXIS2_PLACEMENT_3D('',#1790,#1468,#1469);
#1187=AXIS2_PLACEMENT_3D('',#1794,#1471,#1472);
#1188=AXIS2_PLACEMENT_3D('',#1796,#1474,#1475);
#1189=AXIS2_PLACEMENT_3D('',#1802,#1479,#1480);
#1190=AXIS2_PLACEMENT_3D('',#1804,#1481,#1482);
#1191=AXIS2_PLACEMENT_3D('',#1806,#1484,#1485);
#1192=AXIS2_PLACEMENT_3D('',#1810,#1488,#1489);
#1193=AXIS2_PLACEMENT_3D('',#1812,#1490,#1491);
#1194=AXIS2_PLACEMENT_3D('',#1814,#1493,#1494);
#1195=AXIS2_PLACEMENT_3D('',#1818,#1497,#1498);
#1196=AXIS2_PLACEMENT_3D('',#1820,#1499,#1500);
#1197=AXIS2_PLACEMENT_3D('',#1822,#1502,#1503);
#1198=AXIS2_PLACEMENT_3D('',#1826,#1506,#1507);
#1199=AXIS2_PLACEMENT_3D('',#1827,#1508,#1509);
#1200=AXIS2_PLACEMENT_3D('',#1828,#1510,#1511);
#1201=AXIS2_PLACEMENT_3D('',#1834,#1515,#1516);
#1202=AXIS2_PLACEMENT_3D('',#1836,#1517,#1518);
#1203=AXIS2_PLACEMENT_3D('',#1838,#1520,#1521);
#1204=AXIS2_PLACEMENT_3D('',#1842,#1524,#1525);
#1205=AXIS2_PLACEMENT_3D('',#1844,#1526,#1527);
#1206=AXIS2_PLACEMENT_3D('',#1846,#1529,#1530);
#1207=AXIS2_PLACEMENT_3D('',#1850,#1533,#1534);
#1208=AXIS2_PLACEMENT_3D('',#1852,#1535,#1536);
#1209=AXIS2_PLACEMENT_3D('',#1854,#1538,#1539);
#1210=AXIS2_PLACEMENT_3D('',#1858,#1542,#1543);
#1211=AXIS2_PLACEMENT_3D('',#1859,#1544,#1545);
#1212=AXIS2_PLACEMENT_3D('',#1860,#1546,#1547);
#1213=AXIS2_PLACEMENT_3D('',#1861,#1548,#1549);
#1214=DIRECTION('axis',(0.,0.,1.));
#1215=DIRECTION('refdir',(1.,0.,0.));
#1216=DIRECTION('center_axis',(1.45364716808531E-16,-1.,0.));
#1217=DIRECTION('ref_axis',(-0.70710678118654,0.,0.707106781186555));
#1218=DIRECTION('center_axis',(4.44089209850068E-15,-1.,0.));
#1219=DIRECTION('ref_axis',(0.,0.,1.));
#1220=DIRECTION('',(1.45364716808531E-16,-1.,0.));
#1221=DIRECTION('center_axis',(0.,1.,0.));
#1222=DIRECTION('ref_axis',(-1.,0.,0.));
#1223=DIRECTION('',(-1.45364716808531E-16,1.,0.));
#1224=DIRECTION('center_axis',(0.,0.,1.));
#1225=DIRECTION('ref_axis',(1.,0.,0.));
#1226=DIRECTION('center_axis',(-1.,0.,0.));
#1227=DIRECTION('ref_axis',(0.,-1.,0.));
#1228=DIRECTION('center_axis',(0.,0.,-1.));
#1229=DIRECTION('ref_axis',(-0.707106781186547,-0.707106781186548,0.));
#1230=DIRECTION('center_axis',(0.,0.,1.));
#1231=DIRECTION('ref_axis',(-0.707106781186547,-0.707106781186548,0.));
#1232=DIRECTION('center_axis',(1.,4.69438911046578E-17,0.));
#1233=DIRECTION('ref_axis',(0.,-0.707106781186546,0.707106781186549));
#1234=DIRECTION('center_axis',(-1.,0.,0.));
#1235=DIRECTION('ref_axis',(0.,-1.,0.));
#1236=DIRECTION('',(-1.,-4.69438911046578E-17,0.));
#1237=DIRECTION('',(1.,4.69438911046578E-17,0.));
#1238=DIRECTION('center_axis',(0.,0.,1.));
#1239=DIRECTION('ref_axis',(1.,0.,0.));
#1240=DIRECTION('center_axis',(0.,-1.,0.));
#1241=DIRECTION('ref_axis',(1.,0.,0.));
#1242=DIRECTION('center_axis',(0.,0.,-1.));
#1243=DIRECTION('ref_axis',(0.707106781186547,-0.707106781186548,0.));
#1244=DIRECTION('center_axis',(0.,0.,1.));
#1245=DIRECTION('ref_axis',(0.707106781186547,-0.707106781186548,0.));
#1246=DIRECTION('center_axis',(0.,1.,0.));
#1247=DIRECTION('ref_axis',(0.707106781186546,0.,0.707106781186549));
#1248=DIRECTION('center_axis',(0.,-1.,0.));
#1249=DIRECTION('ref_axis',(1.,0.,0.));
#1250=DIRECTION('',(0.,-1.,0.));
#1251=DIRECTION('',(0.,1.,0.));
#1252=DIRECTION('center_axis',(0.,0.,1.));
#1253=DIRECTION('ref_axis',(1.,0.,0.));
#1254=DIRECTION('center_axis',(1.,0.,0.));
#1255=DIRECTION('ref_axis',(0.,1.,0.));
#1256=DIRECTION('center_axis',(0.,0.,-1.));
#1257=DIRECTION('ref_axis',(0.707106781186548,0.707106781186547,0.));
#1258=DIRECTION('center_axis',(0.,0.,1.));
#1259=DIRECTION('ref_axis',(0.707106781186548,0.707106781186547,0.));
#1260=DIRECTION('center_axis',(-1.,4.69438911046578E-17,0.));
#1261=DIRECTION('ref_axis',(0.,0.707106781186546,0.707106781186549));
#1262=DIRECTION('center_axis',(1.,0.,0.));
#1263=DIRECTION('ref_axis',(0.,1.,0.));
#1264=DIRECTION('',(1.,-4.69438911046578E-17,0.));
#1265=DIRECTION('',(-1.,4.69438911046578E-17,0.));
#1266=DIRECTION('center_axis',(0.,0.,1.));
#1267=DIRECTION('ref_axis',(1.,0.,0.));
#1268=DIRECTION('center_axis',(0.,0.,-1.));
#1269=DIRECTION('ref_axis',(-0.707106781186548,0.707106781186547,0.));
#1270=DIRECTION('center_axis',(0.,0.,1.));
#1271=DIRECTION('ref_axis',(-0.707106781186548,0.707106781186547,0.));
#1272=DIRECTION('center_axis',(0.,0.,-1.));
#1273=DIRECTION('ref_axis',(1.,-1.40980701539702E-15,0.));
#1274=DIRECTION('',(0.,0.,-1.));
#1275=DIRECTION('center_axis',(0.,0.,-1.));
#1276=DIRECTION('ref_axis',(0.707106781186547,-0.707106781186548,0.));
#1277=DIRECTION('',(0.,0.,-1.));
#1278=DIRECTION('center_axis',(4.69438911046578E-17,-1.,0.));
#1279=DIRECTION('ref_axis',(-1.,-4.69438911046578E-17,0.));
#1280=DIRECTION('',(0.,0.,-1.));
#1281=DIRECTION('',(-1.,-4.69438911046578E-17,0.));
#1282=DIRECTION('center_axis',(0.,0.,-1.));
#1283=DIRECTION('ref_axis',(1.40980701539703E-15,-1.,0.));
#1284=DIRECTION('',(0.,0.,-1.));
#1285=DIRECTION('center_axis',(0.,0.,-1.));
#1286=DIRECTION('ref_axis',(-0.707106781186547,-0.707106781186548,0.));
#1287=DIRECTION('center_axis',(-1.,-1.45364716808531E-16,0.));
#1288=DIRECTION('ref_axis',(-1.45364716808531E-16,1.,0.));
#1289=DIRECTION('',(0.,0.,-1.));
#1290=DIRECTION('',(-1.45364716808531E-16,1.,0.));
#1291=DIRECTION('center_axis',(0.,0.,-1.));
#1292=DIRECTION('ref_axis',(1.,0.,0.));
#1293=DIRECTION('center_axis',(0.,0.,-1.));
#1294=DIRECTION('ref_axis',(1.77635683940026E-15,-1.,0.));
#1295=DIRECTION('',(-1.45364716808531E-16,1.,0.));
#1296=DIRECTION('center_axis',(0.,0.,-1.));
#1297=DIRECTION('ref_axis',(-1.,8.88178419700125E-16,0.));
#1298=DIRECTION('',(1.,-4.69438911046578E-17,0.));
#1299=DIRECTION('center_axis',(0.,0.,-1.));
#1300=DIRECTION('ref_axis',(3.55271367880049E-15,1.,0.));
#1301=DIRECTION('',(-1.45364716808531E-16,-1.,0.));
#1302=DIRECTION('center_axis',(0.,0.,-1.));
#1303=DIRECTION('ref_axis',(1.,-8.88178419700127E-16,0.));
#1304=DIRECTION('',(-1.,-4.69438911046578E-17,0.));
#1305=DIRECTION('center_axis',(-1.,0.,0.));
#1306=DIRECTION('ref_axis',(0.,-1.,0.));
#1307=DIRECTION('',(0.,0.,1.));
#1308=DIRECTION('',(0.,-0.819152044288994,0.573576436351043));
#1309=DIRECTION('center_axis',(-1.,0.,0.));
#1310=DIRECTION('ref_axis',(0.,-0.573576436351036,-0.819152044288999));
#1311=DIRECTION('',(0.,0.819152044289065,0.573576436350942));
#1312=DIRECTION('center_axis',(0.,-0.573576436351043,-0.819152044288994));
#1313=DIRECTION('ref_axis',(0.,0.819152044288994,-0.573576436351043));
#1314=DIRECTION('',(-1.,4.69438911046578E-17,-3.28704664243768E-17));
#1315=DIRECTION('',(0.,0.819152044288994,-0.573576436351043));
#1316=DIRECTION('',(1.,0.,0.));
#1317=DIRECTION('center_axis',(1.,0.,0.));
#1318=DIRECTION('ref_axis',(0.,-0.573576436351036,-0.819152044288999));
#1319=DIRECTION('center_axis',(1.,0.,0.));
#1320=DIRECTION('ref_axis',(0.,-0.573576436351036,-0.819152044288999));
#1321=DIRECTION('',(1.,0.,0.));
#1322=DIRECTION('center_axis',(0.,-0.573576436350942,0.819152044289065));
#1323=DIRECTION('ref_axis',(0.,-0.819152044289065,-0.573576436350942));
#1324=DIRECTION('',(1.,-4.69438911046578E-17,-3.28704664243682E-17));
#1325=DIRECTION('',(0.,-0.819152044289065,-0.573576436350942));
#1326=DIRECTION('center_axis',(-1.,0.,0.));
#1327=DIRECTION('ref_axis',(0.,-1.,0.));
#1328=DIRECTION('',(0.,0.,-1.));
#1329=DIRECTION('center_axis',(-1.,0.,0.));
#1330=DIRECTION('ref_axis',(0.,-1.,0.));
#1331=DIRECTION('',(0.,0.,1.));
#1332=DIRECTION('',(0.,0.819152044288994,-0.573576436351043));
#1333=DIRECTION('center_axis',(1.,0.,0.));
#1334=DIRECTION('ref_axis',(0.,-0.573576436351036,-0.819152044288999));
#1335=DIRECTION('',(0.,-0.819152044289065,-0.573576436350942));
#1336=DIRECTION('center_axis',(0.,0.573576436351043,0.819152044288994));
#1337=DIRECTION('ref_axis',(0.,0.819152044288994,-0.573576436351043));
#1338=DIRECTION('',(-1.,4.69438911046578E-17,-3.28704664243768E-17));
#1339=DIRECTION('',(0.,-0.819152044288994,0.573576436351043));
#1340=DIRECTION('',(-1.,0.,0.));
#1341=DIRECTION('center_axis',(1.,0.,0.));
#1342=DIRECTION('ref_axis',(0.,-0.573576436351036,-0.819152044288999));
#1343=DIRECTION('center_axis',(-1.,0.,0.));
#1344=DIRECTION('ref_axis',(0.,-0.573576436351036,-0.819152044288999));
#1345=DIRECTION('',(-1.,0.,0.));
#1346=DIRECTION('center_axis',(0.,0.573576436350942,-0.819152044289065));
#1347=DIRECTION('ref_axis',(0.,-0.819152044289065,-0.573576436350942));
#1348=DIRECTION('',(1.,-4.69438911046578E-17,-3.28704664243682E-17));
#1349=DIRECTION('',(0.,0.819152044289065,0.573576436350942));
#1350=DIRECTION('center_axis',(-1.,0.,0.));
#1351=DIRECTION('ref_axis',(0.,-1.,0.));
#1352=DIRECTION('',(0.,0.,-1.));
#1353=DIRECTION('center_axis',(1.,0.,0.));
#1354=DIRECTION('ref_axis',(0.,1.,0.));
#1355=DIRECTION('',(0.,0.,1.));
#1356=DIRECTION('',(0.,-0.819152044288994,-0.573576436351043));
#1357=DIRECTION('center_axis',(-1.,0.,0.));
#1358=DIRECTION('ref_axis',(0.,0.573576436351036,-0.819152044288999));
#1359=DIRECTION('',(0.,0.819152044289065,-0.573576436350942));
#1360=DIRECTION('center_axis',(0.,-0.573576436351043,0.819152044288994));
#1361=DIRECTION('ref_axis',(0.,-0.819152044288994,-0.573576436351043));
#1362=DIRECTION('',(1.,4.69438911046578E-17,3.28704664243768E-17));
#1363=DIRECTION('',(0.,0.819152044288994,0.573576436351043));
#1364=DIRECTION('',(1.,0.,0.));
#1365=DIRECTION('center_axis',(-1.,0.,0.));
#1366=DIRECTION('ref_axis',(0.,0.573576436351036,-0.819152044288999));
#1367=DIRECTION('center_axis',(1.,0.,0.));
#1368=DIRECTION('ref_axis',(0.,0.573576436351036,-0.819152044288999));
#1369=DIRECTION('',(1.,0.,0.));
#1370=DIRECTION('center_axis',(0.,-0.573576436350942,-0.819152044289065));
#1371=DIRECTION('ref_axis',(0.,0.819152044289065,-0.573576436350942));
#1372=DIRECTION('',(-1.,-4.69438911046578E-17,3.28704664243682E-17));
#1373=DIRECTION('',(0.,-0.819152044289065,0.573576436350942));
#1374=DIRECTION('center_axis',(1.,0.,0.));
#1375=DIRECTION('ref_axis',(0.,1.,0.));
#1376=DIRECTION('',(0.,0.,-1.));
#1377=DIRECTION('center_axis',(1.,0.,0.));
#1378=DIRECTION('ref_axis',(0.,1.,0.));
#1379=DIRECTION('',(0.,0.,1.));
#1380=DIRECTION('',(0.,0.819152044288994,0.573576436351043));
#1381=DIRECTION('center_axis',(1.,0.,0.));
#1382=DIRECTION('ref_axis',(0.,0.573576436351036,-0.819152044288999));
#1383=DIRECTION('',(0.,-0.819152044289065,0.573576436350942));
#1384=DIRECTION('center_axis',(0.,0.573576436351043,-0.819152044288994));
#1385=DIRECTION('ref_axis',(0.,-0.819152044288994,-0.573576436351043));
#1386=DIRECTION('',(1.,4.69438911046578E-17,3.28704664243768E-17));
#1387=DIRECTION('',(0.,-0.819152044288994,-0.573576436351043));
#1388=DIRECTION('',(-1.,0.,0.));
#1389=DIRECTION('center_axis',(-1.,0.,0.));
#1390=DIRECTION('ref_axis',(0.,0.573576436351036,-0.819152044288999));
#1391=DIRECTION('center_axis',(-1.,0.,0.));
#1392=DIRECTION('ref_axis',(0.,0.573576436351036,-0.819152044288999));
#1393=DIRECTION('',(-1.,0.,0.));
#1394=DIRECTION('center_axis',(0.,0.573576436350942,0.819152044289065));
#1395=DIRECTION('ref_axis',(0.,0.819152044289065,-0.573576436350942));
#1396=DIRECTION('',(-1.,-4.69438911046578E-17,3.28704664243682E-17));
#1397=DIRECTION('',(0.,0.819152044289065,-0.573576436350942));
#1398=DIRECTION('center_axis',(1.,0.,0.));
#1399=DIRECTION('ref_axis',(0.,1.,0.));
#1400=DIRECTION('',(0.,0.,-1.));
#1401=DIRECTION('center_axis',(-1.45364716808531E-16,1.,0.));
#1402=DIRECTION('ref_axis',(-0.707106781186543,0.,-0.707106781186552));
#1403=DIRECTION('center_axis',(0.,1.,0.));
#1404=DIRECTION('ref_axis',(0.,0.,-1.));
#1405=DIRECTION('center_axis',(2.96059473233376E-15,-1.,0.));
#1406=DIRECTION('ref_axis',(-1.,-2.96059473233376E-15,0.));
#1407=DIRECTION('',(1.45364716808531E-16,-1.,0.));
#1408=DIRECTION('center_axis',(0.,0.,-1.));
#1409=DIRECTION('ref_axis',(-1.,0.,0.));
#1410=DIRECTION('center_axis',(-1.,0.,0.));
#1411=DIRECTION('ref_axis',(0.,1.,0.));
#1412=DIRECTION('center_axis',(0.,0.,1.));
#1413=DIRECTION('ref_axis',(-0.707106781186548,0.707106781186547,0.));
#1414=DIRECTION('center_axis',(0.,0.,-1.));
#1415=DIRECTION('ref_axis',(-0.707106781186548,0.707106781186547,0.));
#1416=DIRECTION('center_axis',(1.,-4.69438911046578E-17,0.));
#1417=DIRECTION('ref_axis',(0.,0.707106781186548,-0.707106781186548));
#1418=DIRECTION('center_axis',(-1.,0.,0.));
#1419=DIRECTION('ref_axis',(0.,1.,0.));
#1420=DIRECTION('',(-1.,4.69438911046578E-17,0.));
#1421=DIRECTION('',(1.,-4.69438911046578E-17,0.));
#1422=DIRECTION('center_axis',(0.,0.,-1.));
#1423=DIRECTION('ref_axis',(-1.,0.,0.));
#1424=DIRECTION('center_axis',(-2.96059473233374E-15,1.,0.));
#1425=DIRECTION('ref_axis',(1.,2.96059473233374E-15,0.));
#1426=DIRECTION('center_axis',(0.,0.,1.));
#1427=DIRECTION('ref_axis',(0.707106781186548,0.707106781186547,0.));
#1428=DIRECTION('center_axis',(0.,0.,-1.));
#1429=DIRECTION('ref_axis',(0.707106781186548,0.707106781186547,0.));
#1430=DIRECTION('center_axis',(0.,-1.,0.));
#1431=DIRECTION('ref_axis',(0.707106781186548,0.,-0.707106781186548));
#1432=DIRECTION('center_axis',(0.,1.,0.));
#1433=DIRECTION('ref_axis',(1.,0.,0.));
#1434=DIRECTION('',(0.,1.,0.));
#1435=DIRECTION('',(0.,-1.,0.));
#1436=DIRECTION('center_axis',(0.,0.,-1.));
#1437=DIRECTION('ref_axis',(-1.,0.,0.));
#1438=DIRECTION('center_axis',(1.,0.,0.));
#1439=DIRECTION('ref_axis',(0.,-1.,0.));
#1440=DIRECTION('center_axis',(0.,0.,1.));
#1441=DIRECTION('ref_axis',(0.707106781186547,-0.707106781186548,0.));
#1442=DIRECTION('center_axis',(-1.,-4.69438911046578E-17,0.));
#1443=DIRECTION('ref_axis',(0.,-0.707106781186548,-0.707106781186548));
#1444=DIRECTION('center_axis',(1.,0.,0.));
#1445=DIRECTION('ref_axis',(0.,-1.,0.));
#1446=DIRECTION('',(1.,4.69438911046578E-17,0.));
#1447=DIRECTION('center_axis',(0.,0.,-1.));
#1448=DIRECTION('ref_axis',(-1.,0.,0.));
#1449=DIRECTION('center_axis',(0.,0.,1.));
#1450=DIRECTION('ref_axis',(-0.707106781186547,-0.707106781186548,0.));
#1451=DIRECTION('center_axis',(0.,0.,-1.));
#1452=DIRECTION('ref_axis',(2.81961403079404E-15,1.,0.));
#1453=DIRECTION('',(0.,0.,-1.));
#1454=DIRECTION('',(0.,0.,1.));
#1455=DIRECTION('center_axis',(4.69438911046578E-17,1.,0.));
#1456=DIRECTION('ref_axis',(1.,-4.69438911046578E-17,0.));
#1457=DIRECTION('',(0.,0.,-1.));
#1458=DIRECTION('center_axis',(0.,0.,-1.));
#1459=DIRECTION('ref_axis',(-1.,7.04903507698511E-16,0.));
#1460=DIRECTION('center_axis',(0.,0.,-1.));
#1461=DIRECTION('ref_axis',(1.,0.,0.));
#1462=DIRECTION('center_axis',(0.,0.,1.));
#1463=DIRECTION('ref_axis',(8.88178419700119E-15,1.,0.));
#1464=DIRECTION('',(-1.,1.00245871297983E-16,0.));
#1465=DIRECTION('center_axis',(0.,0.,1.));
#1466=DIRECTION('ref_axis',(-1.,8.88178419700117E-15,0.));
#1467=DIRECTION('',(1.61193905571711E-16,-1.,0.));
#1468=DIRECTION('center_axis',(0.,0.,1.));
#1469=DIRECTION('ref_axis',(-4.4408920985006E-15,-1.,0.));
#1470=DIRECTION('',(1.,1.00245871297983E-16,0.));
#1471=DIRECTION('center_axis',(0.,0.,1.));
#1472=DIRECTION('ref_axis',(1.,2.22044604925032E-15,0.));
#1473=DIRECTION('',(4.83581716715132E-16,1.,0.));
#1474=DIRECTION('center_axis',(-4.69438911046578E-17,1.,0.));
#1475=DIRECTION('ref_axis',(-1.,-4.69438911046578E-17,0.));
#1476=DIRECTION('',(1.,4.69438911046578E-17,0.));
#1477=DIRECTION('',(0.,0.,1.));
#1478=DIRECTION('',(0.,0.,1.));
#1479=DIRECTION('center_axis',(0.,0.,1.));
#1480=DIRECTION('ref_axis',(1.,-8.88178419700127E-16,0.));
#1481=DIRECTION('center_axis',(0.,0.,1.));
#1482=DIRECTION('ref_axis',(1.,-8.88178419700127E-16,0.));
#1483=DIRECTION('',(0.,0.,1.));
#1484=DIRECTION('center_axis',(-1.,1.45364716808531E-16,0.));
#1485=DIRECTION('ref_axis',(-1.45364716808531E-16,-1.,0.));
#1486=DIRECTION('',(1.45364716808531E-16,1.,0.));
#1487=DIRECTION('',(0.,0.,1.));
#1488=DIRECTION('center_axis',(0.,0.,1.));
#1489=DIRECTION('ref_axis',(3.55271367880049E-15,1.,0.));
#1490=DIRECTION('center_axis',(0.,0.,1.));
#1491=DIRECTION('ref_axis',(3.55271367880049E-15,1.,0.));
#1492=DIRECTION('',(0.,0.,1.));
#1493=DIRECTION('center_axis',(-4.69438911046578E-17,-1.,0.));
#1494=DIRECTION('ref_axis',(1.,-4.69438911046578E-17,0.));
#1495=DIRECTION('',(-1.,4.69438911046578E-17,0.));
#1496=DIRECTION('',(0.,0.,1.));
#1497=DIRECTION('center_axis',(0.,0.,1.));
#1498=DIRECTION('ref_axis',(-1.,8.88178419700125E-16,0.));
#1499=DIRECTION('center_axis',(0.,0.,1.));
#1500=DIRECTION('ref_axis',(-1.,8.88178419700125E-16,0.));
#1501=DIRECTION('',(0.,0.,1.));
#1502=DIRECTION('center_axis',(1.,1.45364716808531E-16,0.));
#1503=DIRECTION('ref_axis',(-1.45364716808531E-16,1.,0.));
#1504=DIRECTION('',(1.45364716808531E-16,-1.,0.));
#1505=DIRECTION('',(0.,0.,1.));
#1506=DIRECTION('center_axis',(0.,0.,1.));
#1507=DIRECTION('ref_axis',(1.77635683940026E-15,-1.,0.));
#1508=DIRECTION('center_axis',(0.,0.,1.));
#1509=DIRECTION('ref_axis',(1.77635683940026E-15,-1.,0.));
#1510=DIRECTION('center_axis',(-1.,4.83581716715132E-16,0.));
#1511=DIRECTION('ref_axis',(4.83581716715132E-16,1.,0.));
#1512=DIRECTION('',(4.83581716715132E-16,1.,0.));
#1513=DIRECTION('',(0.,0.,-1.));
#1514=DIRECTION('',(0.,0.,-1.));
#1515=DIRECTION('center_axis',(0.,0.,-1.));
#1516=DIRECTION('ref_axis',(1.,2.22044604925032E-15,0.));
#1517=DIRECTION('center_axis',(0.,0.,1.));
#1518=DIRECTION('ref_axis',(1.,2.22044604925032E-15,0.));
#1519=DIRECTION('',(0.,0.,-1.));
#1520=DIRECTION('center_axis',(-1.00245871297983E-16,1.,0.));
#1521=DIRECTION('ref_axis',(1.,1.00245871297983E-16,0.));
#1522=DIRECTION('',(1.,1.00245871297983E-16,0.));
#1523=DIRECTION('',(0.,0.,-1.));
#1524=DIRECTION('center_axis',(0.,0.,-1.));
#1525=DIRECTION('ref_axis',(-4.4408920985006E-15,-1.,0.));
#1526=DIRECTION('center_axis',(0.,0.,1.));
#1527=DIRECTION('ref_axis',(-4.4408920985006E-15,-1.,0.));
#1528=DIRECTION('',(0.,0.,-1.));
#1529=DIRECTION('center_axis',(1.,1.61193905571711E-16,0.));
#1530=DIRECTION('ref_axis',(1.61193905571711E-16,-1.,0.));
#1531=DIRECTION('',(1.61193905571711E-16,-1.,0.));
#1532=DIRECTION('',(0.,0.,-1.));
#1533=DIRECTION('center_axis',(0.,0.,-1.));
#1534=DIRECTION('ref_axis',(-1.,8.88178419700117E-15,0.));
#1535=DIRECTION('center_axis',(0.,0.,1.));
#1536=DIRECTION('ref_axis',(-1.,8.88178419700117E-15,0.));
#1537=DIRECTION('',(0.,0.,-1.));
#1538=DIRECTION('center_axis',(-1.00245871297983E-16,-1.,0.));
#1539=DIRECTION('ref_axis',(-1.,1.00245871297983E-16,0.));
#1540=DIRECTION('',(-1.,1.00245871297983E-16,0.));
#1541=DIRECTION('',(0.,0.,-1.));
#1542=DIRECTION('center_axis',(0.,0.,-1.));
#1543=DIRECTION('ref_axis',(8.88178419700119E-15,1.,0.));
#1544=DIRECTION('center_axis',(0.,0.,1.));
#1545=DIRECTION('ref_axis',(8.88178419700119E-15,1.,0.));
#1546=DIRECTION('center_axis',(1.,0.,0.));
#1547=DIRECTION('ref_axis',(0.,-1.,0.));
#1548=DIRECTION('center_axis',(0.,0.,-1.));
#1549=DIRECTION('ref_axis',(1.,0.,0.));
#1550=CARTESIAN_POINT('',(0.,0.,0.));
#1551=CARTESIAN_POINT('Origin',(-52.6,-15.275,-11.));
#1552=CARTESIAN_POINT('',(-52.6,30.55,-10.));
#1553=CARTESIAN_POINT('',(-53.6,30.55,-11.));
#1554=CARTESIAN_POINT('Origin',(-52.6,30.55,-11.));
#1555=CARTESIAN_POINT('',(-53.6,-30.55,-11.));
#1556=CARTESIAN_POINT('',(-53.6,-15.275,-11.));
#1557=CARTESIAN_POINT('',(-52.6,-30.55,-10.));
#1558=CARTESIAN_POINT('Origin',(-52.6,-30.55,-11.));
#1559=CARTESIAN_POINT('',(-52.6,-15.275,-10.));
#1560=CARTESIAN_POINT('Origin',(-47.3,-30.55,-11.));
#1561=CARTESIAN_POINT('',(-47.3,-36.85,-11.));
#1562=CARTESIAN_POINT('',(-47.3,-35.85,-10.));
#1563=CARTESIAN_POINT('Origin',(-47.3,-35.85,-11.));
#1564=CARTESIAN_POINT('Origin',(-47.3,-30.55,-10.));
#1565=CARTESIAN_POINT('Origin',(-47.3,-30.55,-11.));
#1566=CARTESIAN_POINT('Origin',(23.65,-35.85,-11.));
#1567=CARTESIAN_POINT('',(47.3,-36.85,-11.));
#1568=CARTESIAN_POINT('',(47.3,-35.85,-10.));
#1569=CARTESIAN_POINT('Origin',(47.3,-35.85,-11.));
#1570=CARTESIAN_POINT('',(23.65,-35.85,-10.));
#1571=CARTESIAN_POINT('',(23.65,-36.85,-11.));
#1572=CARTESIAN_POINT('Origin',(47.3,-30.55,-11.));
#1573=CARTESIAN_POINT('',(53.6,-30.55,-11.));
#1574=CARTESIAN_POINT('',(52.6,-30.55,-10.));
#1575=CARTESIAN_POINT('Origin',(52.6,-30.55,-11.));
#1576=CARTESIAN_POINT('Origin',(47.3,-30.55,-10.));
#1577=CARTESIAN_POINT('Origin',(47.3,-30.55,-11.));
#1578=CARTESIAN_POINT('Origin',(52.6,15.275,-11.));
#1579=CARTESIAN_POINT('',(53.6,30.55,-11.));
#1580=CARTESIAN_POINT('',(52.6,30.55,-10.));
#1581=CARTESIAN_POINT('Origin',(52.6,30.55,-11.));
#1582=CARTESIAN_POINT('',(52.6,15.275,-10.));
#1583=CARTESIAN_POINT('',(53.6,15.275,-11.));
#1584=CARTESIAN_POINT('Origin',(47.3,30.55,-11.));
#1585=CARTESIAN_POINT('',(47.3,36.85,-11.));
#1586=CARTESIAN_POINT('',(47.3,35.85,-10.));
#1587=CARTESIAN_POINT('Origin',(47.3,35.85,-11.));
#1588=CARTESIAN_POINT('Origin',(47.3,30.55,-10.));
#1589=CARTESIAN_POINT('Origin',(47.3,30.55,-11.));
#1590=CARTESIAN_POINT('Origin',(-23.65,35.85,-11.));
#1591=CARTESIAN_POINT('',(-47.3,36.85,-11.));
#1592=CARTESIAN_POINT('',(-47.3,35.85,-10.));
#1593=CARTESIAN_POINT('Origin',(-47.3,35.85,-11.));
#1594=CARTESIAN_POINT('',(-23.65,35.85,-10.));
#1595=CARTESIAN_POINT('',(-23.65,36.85,-11.));
#1596=CARTESIAN_POINT('Origin',(-47.3,30.55,-11.));
#1597=CARTESIAN_POINT('Origin',(-47.3,30.55,-10.));
#1598=CARTESIAN_POINT('Origin',(-47.3,30.55,-11.));
#1599=CARTESIAN_POINT('Origin',(47.3,-30.55,-20.));
#1600=CARTESIAN_POINT('',(47.3,-36.85,-20.));
#1601=CARTESIAN_POINT('',(47.3,-36.85,-20.));
#1602=CARTESIAN_POINT('',(53.6,-30.55,-20.));
#1603=CARTESIAN_POINT('Origin',(47.3,-30.55,-20.));
#1604=CARTESIAN_POINT('',(53.6,-30.55,-20.));
#1605=CARTESIAN_POINT('Origin',(47.3,-36.85,-20.));
#1606=CARTESIAN_POINT('',(-47.3,-36.85,-20.));
#1607=CARTESIAN_POINT('',(-47.3,-36.85,-20.));
#1608=CARTESIAN_POINT('',(23.65,-36.85,-20.));
#1609=CARTESIAN_POINT('Origin',(-47.3,-30.55,-20.));
#1610=CARTESIAN_POINT('',(-53.6,-30.55,-20.));
#1611=CARTESIAN_POINT('',(-53.6,-30.55,-20.));
#1612=CARTESIAN_POINT('Origin',(-47.3,-30.55,-20.));
#1613=CARTESIAN_POINT('Origin',(-53.6,-30.55,-20.));
#1614=CARTESIAN_POINT('',(-53.6,30.55,-20.));
#1615=CARTESIAN_POINT('',(-53.6,30.55,-20.));
#1616=CARTESIAN_POINT('',(-53.6,-15.275,-20.));
#1617=CARTESIAN_POINT('Origin',(0.,4.44089209850063E-15,-10.));
#1618=CARTESIAN_POINT('',(-47.3,-35.55,-10.));
#1619=CARTESIAN_POINT('',(-52.3,-30.55,-10.));
#1620=CARTESIAN_POINT('Origin',(-47.3,-30.55,-10.));
#1621=CARTESIAN_POINT('',(-52.3,30.55,-10.));
#1622=CARTESIAN_POINT('',(-52.3,-30.55,-10.));
#1623=CARTESIAN_POINT('',(-47.3,35.55,-10.));
#1624=CARTESIAN_POINT('Origin',(-47.3,30.55,-10.));
#1625=CARTESIAN_POINT('',(47.3,35.55,-10.));
#1626=CARTESIAN_POINT('',(-47.3,35.55,-10.));
#1627=CARTESIAN_POINT('',(52.3,30.55,-10.));
#1628=CARTESIAN_POINT('Origin',(47.3,30.55,-10.));
#1629=CARTESIAN_POINT('',(52.3,-30.55,-10.));
#1630=CARTESIAN_POINT('',(52.3,30.55,-10.));
#1631=CARTESIAN_POINT('',(47.3,-35.55,-10.));
#1632=CARTESIAN_POINT('Origin',(47.3,-30.55,-10.));
#1633=CARTESIAN_POINT('',(47.3,-35.55,-10.));
#1634=CARTESIAN_POINT('Origin',(-33.6,35.267613071826,-12.1499997004867));
#1635=CARTESIAN_POINT('',(-33.6,35.55,-13.1549276239791));
#1636=CARTESIAN_POINT('',(-33.6,35.55,-11.1450717769942));
#1637=CARTESIAN_POINT('',(-33.6,35.55,-16.0749998502433));
#1638=CARTESIAN_POINT('',(-33.6,34.9337234406337,-12.7234061314889));
#1639=CARTESIAN_POINT('',(-33.6,35.8999991975725,-13.3999997004867));
#1640=CARTESIAN_POINT('',(-33.6,34.9337234406338,-11.5765932694842));
#1641=CARTESIAN_POINT('Origin',(-33.6,35.3352269460795,-12.1499997004866));
#1642=CARTESIAN_POINT('',(-33.6,34.9337234406338,-11.5765932694842));
#1643=CARTESIAN_POINT('Origin',(-33.6,34.9337234406337,-12.7234061314889));
#1644=CARTESIAN_POINT('',(-27.6,35.55,-13.1549276239791));
#1645=CARTESIAN_POINT('',(-40.45,35.55,-13.1549276239791));
#1646=CARTESIAN_POINT('',(-27.6,34.9337234406337,-12.7234061314889));
#1647=CARTESIAN_POINT('',(-27.6,35.8999991975725,-13.3999997004867));
#1648=CARTESIAN_POINT('',(-33.6,34.9337234406337,-12.7234061314889));
#1649=CARTESIAN_POINT('Origin',(-33.6,35.3352269460795,-12.1499997004866));
#1650=CARTESIAN_POINT('',(-27.6,34.9337234406338,-11.5765932694842));
#1651=CARTESIAN_POINT('Origin',(-27.6,35.3352269460795,-12.1499997004866));
#1652=CARTESIAN_POINT('',(-33.6,34.9337234406338,-11.5765932694842));
#1653=CARTESIAN_POINT('Origin',(-33.6,35.8999991975725,-10.8999997004867));
#1654=CARTESIAN_POINT('',(-27.6,35.55,-11.1450717769942));
#1655=CARTESIAN_POINT('',(-40.45,35.55,-11.1450717769942));
#1656=CARTESIAN_POINT('',(-27.6,34.9337234406338,-11.5765932694842));
#1657=CARTESIAN_POINT('Origin',(-27.6,35.267613071826,-12.1499997004867));
#1658=CARTESIAN_POINT('',(-27.6,35.55,-16.0749998502433));
#1659=CARTESIAN_POINT('Origin',(27.6,35.267613071826,-12.1499997004867));
#1660=CARTESIAN_POINT('',(27.6,35.55,-13.1549276239791));
#1661=CARTESIAN_POINT('',(27.6,35.55,-11.1450717769942));
#1662=CARTESIAN_POINT('',(27.6,35.55,-16.0749998502433));
#1663=CARTESIAN_POINT('',(27.6,34.9337234406337,-12.7234061314889));
#1664=CARTESIAN_POINT('',(27.6,35.8999991975725,-13.3999997004867));
#1665=CARTESIAN_POINT('',(27.6,34.9337234406338,-11.5765932694842));
#1666=CARTESIAN_POINT('Origin',(27.6,35.3352269460795,-12.1499997004866));
#1667=CARTESIAN_POINT('',(27.6,34.9337234406338,-11.5765932694842));
#1668=CARTESIAN_POINT('Origin',(33.6,34.9337234406337,-12.7234061314889));
#1669=CARTESIAN_POINT('',(33.6,35.55,-13.1549276239791));
#1670=CARTESIAN_POINT('',(-6.85,35.55,-13.1549276239791));
#1671=CARTESIAN_POINT('',(33.6,34.9337234406337,-12.7234061314889));
#1672=CARTESIAN_POINT('',(33.6,35.8999991975725,-13.3999997004867));
#1673=CARTESIAN_POINT('',(33.6,34.9337234406337,-12.7234061314889));
#1674=CARTESIAN_POINT('Origin',(33.6,35.3352269460795,-12.1499997004866));
#1675=CARTESIAN_POINT('',(33.6,34.9337234406338,-11.5765932694842));
#1676=CARTESIAN_POINT('Origin',(33.6,35.3352269460795,-12.1499997004866));
#1677=CARTESIAN_POINT('',(33.6,34.9337234406338,-11.5765932694842));
#1678=CARTESIAN_POINT('Origin',(33.6,35.8999991975725,-10.8999997004867));
#1679=CARTESIAN_POINT('',(33.6,35.55,-11.1450717769942));
#1680=CARTESIAN_POINT('',(-6.85,35.55,-11.1450717769942));
#1681=CARTESIAN_POINT('',(33.6,34.9337234406338,-11.5765932694842));
#1682=CARTESIAN_POINT('Origin',(33.6,35.267613071826,-12.1499997004867));
#1683=CARTESIAN_POINT('',(33.6,35.55,-16.0749998502433));
#1684=CARTESIAN_POINT('Origin',(-27.6,-35.267613071826,-12.1499997004867));
#1685=CARTESIAN_POINT('',(-27.6,-35.55,-13.1549276239791));
#1686=CARTESIAN_POINT('',(-27.6,-35.55,-11.1450717769942));
#1687=CARTESIAN_POINT('',(-27.6,-35.55,-16.0749998502433));
#1688=CARTESIAN_POINT('',(-27.6,-34.9337234406337,-12.7234061314889));
#1689=CARTESIAN_POINT('',(-27.6,-35.8999991975725,-13.3999997004867));
#1690=CARTESIAN_POINT('',(-27.6,-34.9337234406338,-11.5765932694842));
#1691=CARTESIAN_POINT('Origin',(-27.6,-35.3352269460795,-12.1499997004866));
#1692=CARTESIAN_POINT('',(-27.6,-34.9337234406338,-11.5765932694842));
#1693=CARTESIAN_POINT('Origin',(-33.6,-34.9337234406337,-12.7234061314889));
#1694=CARTESIAN_POINT('',(-33.6,-35.55,-13.1549276239791));
#1695=CARTESIAN_POINT('',(6.85,-35.55,-13.1549276239791));
#1696=CARTESIAN_POINT('',(-33.6,-34.9337234406337,-12.7234061314889));
#1697=CARTESIAN_POINT('',(-33.6,-35.8999991975725,-13.3999997004867));
#1698=CARTESIAN_POINT('',(-33.6,-34.9337234406337,-12.7234061314889));
#1699=CARTESIAN_POINT('Origin',(-33.6,-35.3352269460795,-12.1499997004866));
#1700=CARTESIAN_POINT('',(-33.6,-34.9337234406338,-11.5765932694842));
#1701=CARTESIAN_POINT('Origin',(-33.6,-35.3352269460795,-12.1499997004866));
#1702=CARTESIAN_POINT('',(-33.6,-34.9337234406338,-11.5765932694842));
#1703=CARTESIAN_POINT('Origin',(-33.6,-35.8999991975725,-10.8999997004867));
#1704=CARTESIAN_POINT('',(-33.6,-35.55,-11.1450717769942));
#1705=CARTESIAN_POINT('',(6.85,-35.55,-11.1450717769942));
#1706=CARTESIAN_POINT('',(-33.6,-34.9337234406338,-11.5765932694842));
#1707=CARTESIAN_POINT('Origin',(-33.6,-35.267613071826,-12.1499997004867));
#1708=CARTESIAN_POINT('',(-33.6,-35.55,-16.0749998502433));
#1709=CARTESIAN_POINT('Origin',(33.6,-35.267613071826,-12.1499997004867));
#1710=CARTESIAN_POINT('',(33.6,-35.55,-13.1549276239791));
#1711=CARTESIAN_POINT('',(33.6,-35.55,-11.1450717769942));
#1712=CARTESIAN_POINT('',(33.6,-35.55,-16.0749998502433));
#1713=CARTESIAN_POINT('',(33.6,-34.9337234406337,-12.7234061314889));
#1714=CARTESIAN_POINT('',(33.6,-35.8999991975725,-13.3999997004867));
#1715=CARTESIAN_POINT('',(33.6,-34.9337234406338,-11.5765932694842));
#1716=CARTESIAN_POINT('Origin',(33.6,-35.3352269460795,-12.1499997004866));
#1717=CARTESIAN_POINT('',(33.6,-34.9337234406338,-11.5765932694842));
#1718=CARTESIAN_POINT('Origin',(33.6,-34.9337234406337,-12.7234061314889));
#1719=CARTESIAN_POINT('',(27.6,-35.55,-13.1549276239791));
#1720=CARTESIAN_POINT('',(40.45,-35.55,-13.1549276239791));
#1721=CARTESIAN_POINT('',(27.6,-34.9337234406337,-12.7234061314889));
#1722=CARTESIAN_POINT('',(27.6,-35.8999991975725,-13.3999997004867));
#1723=CARTESIAN_POINT('',(33.6,-34.9337234406337,-12.7234061314889));
#1724=CARTESIAN_POINT('Origin',(33.6,-35.3352269460795,-12.1499997004866));
#1725=CARTESIAN_POINT('',(27.6,-34.9337234406338,-11.5765932694842));
#1726=CARTESIAN_POINT('Origin',(27.6,-35.3352269460795,-12.1499997004866));
#1727=CARTESIAN_POINT('',(33.6,-34.9337234406338,-11.5765932694842));
#1728=CARTESIAN_POINT('Origin',(33.6,-35.8999991975725,-10.8999997004867));
#1729=CARTESIAN_POINT('',(27.6,-35.55,-11.1450717769942));
#1730=CARTESIAN_POINT('',(40.45,-35.55,-11.1450717769942));
#1731=CARTESIAN_POINT('',(27.6,-34.9337234406338,-11.5765932694842));
#1732=CARTESIAN_POINT('Origin',(27.6,-35.267613071826,-12.1499997004867));
#1733=CARTESIAN_POINT('',(27.6,-35.55,-16.0749998502433));
#1734=CARTESIAN_POINT('Origin',(-52.1,-15.275,-20.));
#1735=CARTESIAN_POINT('',(-52.1,-30.55,-21.5));
#1736=CARTESIAN_POINT('Origin',(-52.1,-30.55,-20.));
#1737=CARTESIAN_POINT('',(-52.1,30.55,-21.5));
#1738=CARTESIAN_POINT('Origin',(-52.1,30.55,-20.));
#1739=CARTESIAN_POINT('',(-52.1,-15.275,-21.5));
#1740=CARTESIAN_POINT('Origin',(-47.3,30.55,-20.));
#1741=CARTESIAN_POINT('',(-47.3,36.85,-20.));
#1742=CARTESIAN_POINT('',(-47.3,35.35,-21.5));
#1743=CARTESIAN_POINT('Origin',(-47.3,35.35,-20.));
#1744=CARTESIAN_POINT('Origin',(-47.3,30.55,-21.5));
#1745=CARTESIAN_POINT('Origin',(-47.3,30.55,-20.));
#1746=CARTESIAN_POINT('Origin',(-23.65,35.35,-20.));
#1747=CARTESIAN_POINT('',(47.3,36.85,-20.));
#1748=CARTESIAN_POINT('',(47.3,35.35,-21.5));
#1749=CARTESIAN_POINT('Origin',(47.3,35.35,-20.));
#1750=CARTESIAN_POINT('',(-23.65,35.35,-21.5));
#1751=CARTESIAN_POINT('',(-23.65,36.85,-20.));
#1752=CARTESIAN_POINT('Origin',(47.3,30.55,-20.));
#1753=CARTESIAN_POINT('',(53.6,30.55,-20.));
#1754=CARTESIAN_POINT('',(52.1,30.55,-21.5));
#1755=CARTESIAN_POINT('Origin',(52.1,30.55,-20.));
#1756=CARTESIAN_POINT('Origin',(47.3,30.55,-21.5));
#1757=CARTESIAN_POINT('Origin',(47.3,30.55,-20.));
#1758=CARTESIAN_POINT('Origin',(52.1,15.275,-20.));
#1759=CARTESIAN_POINT('',(52.1,-30.55,-21.5));
#1760=CARTESIAN_POINT('Origin',(52.1,-30.55,-20.));
#1761=CARTESIAN_POINT('',(52.1,15.275,-21.5));
#1762=CARTESIAN_POINT('',(53.6,15.275,-20.));
#1763=CARTESIAN_POINT('Origin',(47.3,-30.55,-20.));
#1764=CARTESIAN_POINT('',(47.3,-35.35,-21.5));
#1765=CARTESIAN_POINT('Origin',(47.3,-35.35,-20.));
#1766=CARTESIAN_POINT('Origin',(47.3,-30.55,-21.5));
#1767=CARTESIAN_POINT('Origin',(23.65,-35.35,-20.));
#1768=CARTESIAN_POINT('',(-47.3,-35.35,-21.5));
#1769=CARTESIAN_POINT('Origin',(-47.3,-35.35,-20.));
#1770=CARTESIAN_POINT('',(23.65,-35.35,-21.5));
#1771=CARTESIAN_POINT('Origin',(-47.3,-30.55,-20.));
#1772=CARTESIAN_POINT('Origin',(-47.3,-30.55,-21.5));
#1773=CARTESIAN_POINT('Origin',(47.3,30.55,-20.));
#1774=CARTESIAN_POINT('',(53.6,30.55,-20.));
#1775=CARTESIAN_POINT('',(47.3,36.85,-20.));
#1776=CARTESIAN_POINT('Origin',(-47.3,36.85,-20.));
#1777=CARTESIAN_POINT('',(-47.3,36.85,-20.));
#1778=CARTESIAN_POINT('Origin',(-47.3,30.55,-20.));
#1779=CARTESIAN_POINT('Origin',(0.,4.44089209850063E-15,-21.5));
#1780=CARTESIAN_POINT('',(46.3,27.55,-21.5));
#1781=CARTESIAN_POINT('',(44.3,29.55,-21.5));
#1782=CARTESIAN_POINT('Origin',(44.3,27.55,-21.5));
#1783=CARTESIAN_POINT('',(-44.3,29.55,-21.5));
#1784=CARTESIAN_POINT('',(44.3,29.55,-21.5));
#1785=CARTESIAN_POINT('',(-46.3,27.55,-21.5));
#1786=CARTESIAN_POINT('Origin',(-44.3,27.55,-21.5));
#1787=CARTESIAN_POINT('',(-46.3,-27.55,-21.5));
#1788=CARTESIAN_POINT('',(-46.3,27.55,-21.5));
#1789=CARTESIAN_POINT('',(-44.3,-29.55,-21.5));
#1790=CARTESIAN_POINT('Origin',(-44.3,-27.55,-21.5));
#1791=CARTESIAN_POINT('',(44.3,-29.55,-21.5));
#1792=CARTESIAN_POINT('',(-44.3,-29.55,-21.5));
#1793=CARTESIAN_POINT('',(46.3,-27.55,-21.5));
#1794=CARTESIAN_POINT('Origin',(44.3,-27.55,-21.5));
#1795=CARTESIAN_POINT('',(46.3,-27.55,-21.5));
#1796=CARTESIAN_POINT('Origin',(47.3,-35.55,-20.));
#1797=CARTESIAN_POINT('',(-47.3,-35.55,-20.));
#1798=CARTESIAN_POINT('',(47.3,-35.55,-20.));
#1799=CARTESIAN_POINT('',(23.65,-35.55,-20.));
#1800=CARTESIAN_POINT('',(-47.3,-35.55,-20.));
#1801=CARTESIAN_POINT('',(47.3,-35.55,-20.));
#1802=CARTESIAN_POINT('Origin',(47.3,-30.55,-20.));
#1803=CARTESIAN_POINT('',(52.3,-30.55,-20.));
#1804=CARTESIAN_POINT('Origin',(47.3,-30.55,-20.));
#1805=CARTESIAN_POINT('',(52.3,-30.55,-20.));
#1806=CARTESIAN_POINT('Origin',(52.3,30.55,-20.));
#1807=CARTESIAN_POINT('',(52.3,30.55,-20.));
#1808=CARTESIAN_POINT('',(52.3,15.275,-20.));
#1809=CARTESIAN_POINT('',(52.3,30.55,-20.));
#1810=CARTESIAN_POINT('Origin',(47.3,30.55,-20.));
#1811=CARTESIAN_POINT('',(47.3,35.55,-20.));
#1812=CARTESIAN_POINT('Origin',(47.3,30.55,-20.));
#1813=CARTESIAN_POINT('',(47.3,35.55,-20.));
#1814=CARTESIAN_POINT('Origin',(-47.3,35.55,-20.));
#1815=CARTESIAN_POINT('',(-47.3,35.55,-20.));
#1816=CARTESIAN_POINT('',(-23.65,35.55,-20.));
#1817=CARTESIAN_POINT('',(-47.3,35.55,-20.));
#1818=CARTESIAN_POINT('Origin',(-47.3,30.55,-20.));
#1819=CARTESIAN_POINT('',(-52.3,30.55,-20.));
#1820=CARTESIAN_POINT('Origin',(-47.3,30.55,-20.));
#1821=CARTESIAN_POINT('',(-52.3,30.55,-20.));
#1822=CARTESIAN_POINT('Origin',(-52.3,-30.55,-20.));
#1823=CARTESIAN_POINT('',(-52.3,-30.55,-20.));
#1824=CARTESIAN_POINT('',(-52.3,-15.275,-20.));
#1825=CARTESIAN_POINT('',(-52.3,-30.55,-20.));
#1826=CARTESIAN_POINT('Origin',(-47.3,-30.55,-20.));
#1827=CARTESIAN_POINT('Origin',(-47.3,-30.55,-20.));
#1828=CARTESIAN_POINT('Origin',(46.3,-27.55,-20.));
#1829=CARTESIAN_POINT('',(46.3,-27.55,-20.));
#1830=CARTESIAN_POINT('',(46.3,27.55,-20.));
#1831=CARTESIAN_POINT('',(46.3,-27.55,-20.));
#1832=CARTESIAN_POINT('',(46.3,27.55,-20.));
#1833=CARTESIAN_POINT('',(46.3,-27.55,-20.));
#1834=CARTESIAN_POINT('Origin',(44.3,-27.55,-20.));
#1835=CARTESIAN_POINT('',(44.3,-29.55,-20.));
#1836=CARTESIAN_POINT('Origin',(44.3,-27.55,-20.));
#1837=CARTESIAN_POINT('',(44.3,-29.55,-20.));
#1838=CARTESIAN_POINT('Origin',(-44.3,-29.55,-20.));
#1839=CARTESIAN_POINT('',(-44.3,-29.55,-20.));
#1840=CARTESIAN_POINT('',(-44.3,-29.55,-20.));
#1841=CARTESIAN_POINT('',(-44.3,-29.55,-20.));
#1842=CARTESIAN_POINT('Origin',(-44.3,-27.55,-20.));
#1843=CARTESIAN_POINT('',(-46.3,-27.55,-20.));
#1844=CARTESIAN_POINT('Origin',(-44.3,-27.55,-20.));
#1845=CARTESIAN_POINT('',(-46.3,-27.55,-20.));
#1846=CARTESIAN_POINT('Origin',(-46.3,27.55,-20.));
#1847=CARTESIAN_POINT('',(-46.3,27.55,-20.));
#1848=CARTESIAN_POINT('',(-46.3,27.55,-20.));
#1849=CARTESIAN_POINT('',(-46.3,27.55,-20.));
#1850=CARTESIAN_POINT('Origin',(-44.3,27.55,-20.));
#1851=CARTESIAN_POINT('',(-44.3,29.55,-20.));
#1852=CARTESIAN_POINT('Origin',(-44.3,27.55,-20.));
#1853=CARTESIAN_POINT('',(-44.3,29.55,-20.));
#1854=CARTESIAN_POINT('Origin',(44.3,29.55,-20.));
#1855=CARTESIAN_POINT('',(44.3,29.55,-20.));
#1856=CARTESIAN_POINT('',(44.3,29.55,-20.));
#1857=CARTESIAN_POINT('',(44.3,29.55,-20.));
#1858=CARTESIAN_POINT('Origin',(44.3,27.55,-20.));
#1859=CARTESIAN_POINT('Origin',(44.3,27.55,-20.));
#1860=CARTESIAN_POINT('Origin',(53.6,30.55,-20.));
#1861=CARTESIAN_POINT('Origin',(0.,4.44089209850063E-15,-20.));
#1862=UNCERTAINTY_MEASURE_WITH_UNIT(LENGTH_MEASURE(0.01),#1866,
'DISTANCE_ACCURACY_VALUE',
'Maximum model space distance between geometric entities at asserted c
onnectivities');
#1863=UNCERTAINTY_MEASURE_WITH_UNIT(LENGTH_MEASURE(0.01),#1866,
'DISTANCE_ACCURACY_VALUE',
'Maximum model space distance between geometric entities at asserted c
onnectivities');
#1864=(
GEOMETRIC_REPRESENTATION_CONTEXT(3)
GLOBAL_UNCERTAINTY_ASSIGNED_CONTEXT((#1862))
GLOBAL_UNIT_ASSIGNED_CONTEXT((#1866,#1868,#1869))
REPRESENTATION_CONTEXT('','3D')
);
#1865=(
GEOMETRIC_REPRESENTATION_CONTEXT(3)
GLOBAL_UNCERTAINTY_ASSIGNED_CONTEXT((#1863))
GLOBAL_UNIT_ASSIGNED_CONTEXT((#1866,#1868,#1869))
REPRESENTATION_CONTEXT('','3D')
);
#1866=(
LENGTH_UNIT()
NAMED_UNIT(*)
SI_UNIT(.MILLI.,.METRE.)
);
#1867=(
LENGTH_UNIT()
NAMED_UNIT(*)
SI_UNIT($,.METRE.)
);
#1868=(
NAMED_UNIT(*)
PLANE_ANGLE_UNIT()
SI_UNIT($,.RADIAN.)
);
#1869=(
NAMED_UNIT(*)
SI_UNIT($,.STERADIAN.)
SOLID_ANGLE_UNIT()
);
#1870=SHAPE_DEFINITION_REPRESENTATION(#1871,#1872);
#1871=PRODUCT_DEFINITION_SHAPE('',$,#1874);
#1872=SHAPE_REPRESENTATION('',(#1094),#1864);
#1873=PRODUCT_DEFINITION_CONTEXT('part definition',#1878,'design');
#1874=PRODUCT_DEFINITION('PCB\X2\706F5149753B5C0F591C706F591658F3\X0\',
'PCB\X2\706F5149753B5C0F591C706F591658F3\X0\ v7',#1875,#1873);
#1875=PRODUCT_DEFINITION_FORMATION('',$,#1880);
#1876=PRODUCT_RELATED_PRODUCT_CATEGORY('PCB\X2\706F5149753B5C0F591C706F591658F3\X0\ 
v7','PCB\X2\706F5149753B5C0F591C706F591658F3\X0\ v7',(#1880));
#1877=APPLICATION_PROTOCOL_DEFINITION('international standard',
'automotive_design',2009,#1878);
#1878=APPLICATION_CONTEXT(
'Core Data for Automotive Mechanical Design Process');
#1879=PRODUCT_CONTEXT('part definition',#1878,'mechanical');
#1880=PRODUCT('PCB\X2\706F5149753B5C0F591C706F591658F3\X0\',
'PCB\X2\706F5149753B5C0F591C706F591658F3\X0\ v7',$,(#1879));
#1881=PRESENTATION_STYLE_ASSIGNMENT((#1882));
#1882=SURFACE_STYLE_USAGE(.BOTH.,#1883);
#1883=SURFACE_SIDE_STYLE('',(#1884));
#1884=SURFACE_STYLE_FILL_AREA(#1885);
#1885=FILL_AREA_STYLE('\X2\94A2\X0\ - \X2\7F0E5149\X0\',(#1886));
#1886=FILL_AREA_STYLE_COLOUR('\X2\94A2\X0\ - \X2\7F0E5149\X0\',#1887);
#1887=COLOUR_RGB('\X2\94A2\X0\ - \X2\7F0E5149\X0\',0.627450980392157,0.627450980392157,
0.627450980392157);
ENDSEC;
END-ISO-10303-21;
